                                                                        S      1
,,10Hz_adj_knob,10Hz_adj_knob,7Hunknown,7Hunknown,32,38,7,99,15,,1.,2,2HG      1
MM,1,0.08,15H20150303.215328,0.01,10000.,7Hunknown,7Hunknown,11,0,;     G      2
     186       1                                                00000000D      1
     186            -179       1       0                               0D      2
     514       2                                                00010000D      3
     514                       2       1                               0D      4
     510       4                                                00010000D      5
     510            -179       1       1                               0D      6
     510       5                                                00010000D      7
     510            -179       1       1                               0D      8
     510       6                                                00010000D      9
     510            -179       1       1                               0D     10
     510       7                                                00010000D     11
     510            -179       1       1                               0D     12
     510       8                                                00010000D     13
     510            -179       1       1                               0D     14
     510       9                                                00010000D     15
     510            -179       1       1                               0D     16
     510      10                                                00010000D     17
     510            -179       1       1                               0D     18
     510      11                                                00010000D     19
     510            -179       1       1                               0D     20
     510      12                                                00010000D     21
     510            -179       1       1                               0D     22
     510      13                                                00010000D     23
     510            -179       1       1                               0D     24
     510      14                                                00010000D     25
     510            -179       1       1                               0D     26
     510      15                                                00010000D     27
     510            -179       1       1                               0D     28
     510      16                                                00010000D     29
     510            -179       1       1                               0D     30
     510      17                                                00010000D     31
     510            -179       1       1                               0D     32
     510      18                                                00010000D     33
     510            -179       1       1                               0D     34
     508      19                                                00010000D     35
     508                       1       1                               0D     36
     508      20                                                00010000D     37
     508                       3       1                               0D     38
     508      23                                                00010000D     39
     508                       1       1                               0D     40
     508      24                                                00010000D     41
     508                       1       1                               0D     42
     508      25                                                00010000D     43
     508                       1       1                               0D     44
     508      26                                                00010000D     45
     508                       1       1                               0D     46
     508      27                                                00010000D     47
     508                       1       1                               0D     48
     508      28                                                00010000D     49
     508                       1       1                               0D     50
     508      29                                                00010000D     51
     508                       1       1                               0D     52
     508      30                                                00010000D     53
     508                       1       1                               0D     54
     508      31                                                00010000D     55
     508                       1       1                               0D     56
     508      32                                                00010000D     57
     508                       1       1                               0D     58
     508      33                                                00010000D     59
     508                       3       1                               0D     60
     508      36                                                00010000D     61
     508                       1       1                               0D     62
     508      37                                                00010000D     63
     508                       1       1                               0D     64
     508      38                                                00010000D     65
     508                       1       1                               0D     66
     508      39                                                00010000D     67
     508                       1       1                               0D     68
     508      40                                                00010000D     69
     508                       1       1                               0D     70
     126      41                                                00010000D     71
     126       0               5       0                               0D     72
     126      46                                                00010000D     73
     126       0               3       0                               0D     74
     126      49                                                00010000D     75
     126       0               5       0                               0D     76
     126      54                                                00010000D     77
     126       0               3       0                               0D     78
     126      57                                                00010000D     79
     126       0               6       0                               0D     80
     126      63                                                00010000D     81
     126       0               5       0                               0D     82
     126      68                                                00010000D     83
     126       0               6       0                               0D     84
     126      74                                                00010000D     85
     126       0               4       0                               0D     86
     126      78                                                00010000D     87
     126       0               5       0                               0D     88
     126      83                                                00010000D     89
     126       0               4       0                               0D     90
     126      87                                                00010000D     91
     126       0               6       0                               0D     92
     126      93                                                00010000D     93
     126       0               5       0                               0D     94
     126      98                                                00010000D     95
     126       0               6       0                               0D     96
     126     104                                                00010000D     97
     126       0               8       0                               0D     98
     126     112                                                00010000D     99
     126       0               3       0                               0D    100
     126     115                                                00010000D    101
     126       0               5       0                               0D    102
     126     120                                                00010000D    103
     126       0               3       0                               0D    104
     126     123                                                00010000D    105
     126       0               3       0                               0D    106
     126     126                                                00010000D    107
     126       0               5       0                               0D    108
     126     131                                                00010000D    109
     126       0               2       0                               0D    110
     126     133                                                00010000D    111
     126       0               2       0                               0D    112
     126     135                                                00010000D    113
     126       0               5       0                               0D    114
     126     140                                                00010000D    115
     126       0               3       0                               0D    116
     126     143                                                00010000D    117
     126       0               3       0                               0D    118
     126     146                                                00010000D    119
     126       0               5       0                               0D    120
     126     151                                                00010000D    121
     126       0               3       0                               0D    122
     126     154                                                00010000D    123
     126       0               6       0                               0D    124
     126     160                                                00010000D    125
     126       0               6       0                               0D    126
     126     166                                                00010000D    127
     126       0               5       0                               0D    128
     126     171                                                00010000D    129
     126       0               6       0                               0D    130
     126     177                                                00010000D    131
     126       0               6       0                               0D    132
     126     183                                                00010000D    133
     126       0               9       0                               0D    134
     126     192                                                00010000D    135
     126       0               9       0                               0D    136
     126     201                                                00010000D    137
     126       0               2       0                               0D    138
     126     203                                                00010000D    139
     126       0               8       0                               0D    140
     126     211                                                00010000D    141
     126       0               2       0                               0D    142
     128     213                                                00010000D    143
     128       0    -179       8       0                               0D    144
     128     221                                                00010000D    145
     128       0    -179       7       0                               0D    146
     128     228                                                00010000D    147
     128       0    -179       8       0                               0D    148
     128     236                                                00010000D    149
     128       0    -179       7       0                               0D    150
     128     243                                                00010000D    151
     128       0    -179       8       0                               0D    152
     128     251                                                00010000D    153
     128       0    -179       9       0                               0D    154
     128     260                                                00010000D    155
     128       0    -179       8       0                               0D    156
     128     268                                                00010000D    157
     128       0    -179       8       0                               0D    158
     128     276                                                00010000D    159
     128       0    -179       8       0                               0D    160
     128     284                                                00010000D    161
     128       0    -179       9       0                               0D    162
     128     293                                                00010000D    163
     128       0    -179       8       0                               0D    164
     128     301                                                00010000D    165
     128       0    -179       7       0                               0D    166
     128     308                                                00010000D    167
     128       0    -179      12       0                               0D    168
     128     320                                                00010000D    169
     128       0    -179      12       0                               0D    170
     128     332                                                00010000D    171
     128       0    -179       4       0                               0D    172
     502     336                                                00010000D    173
     502                      13       1                               0D    174
     504     349                                                00010001D    175
     504                      10       1                               0D    176
     406     359                                                00000000D    177
     406                       1      15                               0D    178
     314     360                                                00000200D    179
     314                       1       0                               0D    180
186,3,1,0,0,1,177;                                                     1P      1
514,15,5,1,7,1,9,1,11,1,13,1,15,1,17,1,19,1,21,1,23,1,25,1,27,1,       3P      2
29,1,31,1,33,1;                                                        3P      3
510,143,1,1,35;                                                        5P      4
510,145,2,1,37,39;                                                     7P      5
510,147,1,1,41;                                                        9P      6
510,149,1,1,43;                                                       11P      7
510,151,1,1,45;                                                       13P      8
510,153,1,1,47;                                                       15P      9
510,155,1,1,49;                                                       17P     10
510,157,1,1,51;                                                       19P     11
510,159,1,1,53;                                                       21P     12
510,161,1,1,55;                                                       23P     13
510,163,1,1,57;                                                       25P     14
510,165,2,1,59,61;                                                    27P     15
510,167,1,1,63;                                                       29P     16
510,169,1,1,65;                                                       31P     17
510,171,2,1,67,69;                                                    33P     18
508,4,0,175,1,1,0,0,175,2,1,0,0,175,3,1,0,0,175,4,0,0;                35P     19
508,10,0,175,1,0,0,0,175,5,1,0,0,175,6,0,0,0,175,7,1,0,0,175,8,       37P     20
0,0,0,175,9,1,0,0,175,10,0,0,0,175,11,1,0,0,175,12,0,0,0,175,13,      37P     21
1,0;                                                                  37P     22
508,1,0,175,14,0,0;                                                   39P     23
508,4,0,175,6,1,0,0,175,15,1,0,0,175,16,1,0,0,175,17,0,0;             41P     24
508,4,0,175,8,1,0,0,175,18,1,0,0,175,19,1,0,0,175,20,0,0;             43P     25
508,4,0,175,10,1,0,0,175,21,1,0,0,175,22,1,0,0,175,23,0,0;            45P     26
508,4,0,175,12,1,0,0,175,24,1,0,0,175,25,1,0,0,175,26,0,0;            47P     27
508,4,0,175,5,0,0,0,175,4,1,0,0,175,27,0,0,0,175,15,0,0;              49P     28
508,4,0,175,7,0,0,0,175,17,1,0,0,175,28,0,0,0,175,18,0,0;             51P     29
508,4,0,175,9,0,0,0,175,20,1,0,0,175,29,0,0,0,175,21,0,0;             53P     30
508,4,0,175,11,0,0,0,175,23,1,0,0,175,30,0,0,0,175,24,0,0;            55P     31
508,4,0,175,13,0,0,0,175,26,1,0,0,175,31,0,0,0,175,2,0,0;             57P     32
508,10,0,175,3,0,0,0,175,31,1,0,0,175,25,0,0,0,175,30,1,0,0,175,      59P     33
22,0,0,0,175,29,1,0,0,175,19,0,0,0,175,28,1,0,0,175,16,0,0,0,         59P     34
175,27,1,0;                                                           59P     35
508,1,0,175,32,1,0;                                                   61P     36
508,4,0,175,33,0,0,0,175,34,1,0,0,175,32,0,0,0,175,34,0,0;            63P     37
508,4,0,175,35,0,0,0,175,36,1,0,0,175,14,1,0,0,175,36,0,0;            65P     38
508,1,0,175,35,1,0;                                                   67P     39
508,1,0,175,33,1,0;                                                   69P     40
126,2,2,0,0,0,0,0.,0.,0.,1.03224110461257,1.03224110461257,           71P     41
1.03224110461257,1.,0.869740264966541,1.,-1.97403899250626,7.,        71P     42
20.2182525625019,-4.44089209850063D-15,7.,21.3383656873338,           71P     43
1.97403899250625,7.,20.2182525625019,0.,1.03224110461257,0.,0.,       71P     44
0.;                                                                   71P     45
126,1,1,0,0,1,0,0.,0.,0.3,0.3,1.,1.,1.97403899250625,7.,              73P     46
20.2182525625019,1.97403899250625,10.,20.2182525625019,0.,0.3,        73P     47
0.,0.,0.;                                                             73P     48
126,2,2,0,0,0,0,-1.03224110461257,-1.03224110461257,                  75P     49
-1.03224110461257,0.,0.,0.,1.,0.869740264966541,1.,                   75P     50
1.97403899250625,10.,20.2182525625019,-4.44089209850063D-15,10.,      75P     51
21.3383656873338,-1.97403899250626,10.,20.2182525625019,              75P     52
-1.03224110461257,0.,0.,0.,0.;                                        75P     53
126,1,1,0,0,1,0,0.,0.,0.3,0.3,1.,1.,-1.97403899250626,7.,             77P     54
20.2182525625019,-1.97403899250626,10.,20.2182525625019,0.,0.3,       77P     55
0.,0.,0.;                                                             77P     56
126,2,2,0,0,0,0,0.219743548263522,0.219743548263522,                  79P     57
0.219743548263522,1.66521204389036,1.66521204389036,                  79P     58
1.66521204389036,1.,0.750000000000002,1.,-1.97403899250626,7.,        79P     59
20.2182525625019,-2.74299784403154,7.,16.7754126404164,               79P     60
-6.25495453958837,7.,17.1079853587474,0.219743548263522,              79P     61
1.66521204389036,0.,0.,0.;                                            79P     62
126,2,2,0,0,0,0,0.,0.,0.,1.03224110461257,1.03224110461257,           81P     63
1.03224110461257,1.,0.869740264966534,1.,-7.47497773207483,7.,        81P     64
13.3531400642598,-7.9302570221907,7.,15.5766967026991,                81P     65
-6.25495453958837,7.,17.1079853587474,0.,1.03224110461257,0.,0.,      81P     66
0.;                                                                   81P     67
126,2,2,0,0,0,0,-1.03689351317239,-1.03689351317239,                  83P     68
-1.03689351317239,0.408574982454437,0.408574982454437,                83P     69
0.408574982454437,1.,0.75,1.,-7.47497773207483,7.,                    83P     70
13.3531400642598,-4.43826374271071,7.,11.5579206929169,               83P     71
-5.83981349605732,7.,8.32062201449094,-1.03689351317239,              83P     72
0.408574982454437,0.,0.,0.;                                           83P     73
126,2,2,0,0,0,0,0.,0.,0.,1.03224110461257,1.03224110461257,           85P     74
1.03224110461257,1.,0.869740264966535,1.,-2.64575131106459,7.,        85P     75
6.,-4.90116837923638,7.,6.25412045363404,-5.83981349605732,7.,        85P     76
8.32062201449094,0.,1.03224110461257,0.,0.,0.;                        85P     77
126,2,2,0,0,0,0,-2.29353057460831,-2.29353057460831,                  87P     78
-2.29353057460831,-0.84806207898148,-0.84806207898148,                87P     79
-0.84806207898148,1.,0.749999999999999,1.,-2.64575131106459,7.,       87P     80
6.,2.22044604925031D-15,7.,8.33333333333334,2.6457513110646,7.,       87P     81
6.,-2.29353057460831,-0.84806207898148,0.,0.,0.;                      87P     82
126,2,2,0,0,0,0,0.,0.,0.,1.03224110461257,1.03224110461257,           89P     83
1.03224110461257,1.,0.869740264966533,1.,5.83981349605732,7.,         89P     84
8.32062201449094,4.90116837923638,7.,6.25412045363404,                89P     85
2.6457513110646,7.,6.,0.,1.03224110461257,0.,0.,0.;                   89P     86
126,2,2,0,0,0,0,2.73301767113536,2.73301767113536,                    91P     87
2.73301767113536,4.17848616676219,4.17848616676219,                   91P     88
4.17848616676219,1.,0.750000000000001,1.,5.83981349605732,7.,         91P     89
8.32062201449094,4.43826374271071,7.,11.5579206929169,                91P     90
7.47497773207483,7.,13.3531400642598,2.73301767113536,                91P     91
4.17848616676219,0.,0.,0.;                                            91P     92
126,2,2,0,0,0,0,0.,0.,0.,1.03224110461257,1.03224110461257,           93P     93
1.03224110461257,1.,0.869740264966531,1.,6.25495453958837,7.,         93P     94
17.1079853587474,7.9302570221907,7.,15.5766967026991,                 93P     95
7.47497773207483,7.,13.3531400642598,0.,1.03224110461257,0.,0.,       93P     96
0.;                                                                   93P     97
126,2,2,0,0,0,0,1.47638060969944,1.47638060969944,                    95P     98
1.47638060969944,2.92184910532627,2.92184910532627,                   95P     99
2.92184910532627,1.,0.749999999999997,1.,6.25495453958837,7.,         95P    100
17.1079853587474,2.74299784403153,7.,16.7754126404164,                95P    101
1.97403899250625,7.,20.2182525625019,1.47638060969944,                95P    102
2.92184910532627,0.,0.,0.;                                            95P    103
126,8,2,0,1,0,0,-3.14159265358979,-3.14159265358979,                  97P    104
-3.14159265358979,-1.5707963267949,-1.5707963267949,0.,0.,            97P    105
1.5707963267949,1.5707963267949,3.14159265358979,                     97P    106
3.14159265358979,3.14159265358979,1.,0.707106781186548,1.,            97P    107
0.707106781186548,1.,0.707106781186547,1.,0.707106781186547,1.,       97P    108
3.5,7.,13.,3.5,7.,16.5,-2.14313189850787D-16,7.,16.5,-3.5,7.,         97P    109
16.5,-3.5,7.,13.,-3.5,7.,9.5,-2.14313189850787D-16,7.,9.5,3.5,        97P    110
7.,9.5,3.5,7.,13.,-3.14159265358979,3.14159265358979,0.,0.,0.;        97P    111
126,1,1,0,0,1,0,0.,0.,0.3,0.3,1.,1.,-6.25495453958837,7.,             99P    112
17.1079853587474,-6.25495453958837,10.,17.1079853587474,0.,0.3,       99P    113
0.,0.,0.;                                                             99P    114
126,2,2,0,0,0,0,-1.03224110461257,-1.03224110461257,                 101P    115
-1.03224110461257,0.,0.,0.,1.,0.869740264966534,1.,                  101P    116
-6.25495453958837,10.,17.1079853587474,-7.9302570221907,10.,         101P    117
15.5766967026991,-7.47497773207483,10.,13.3531400642598,             101P    118
-1.03224110461257,0.,0.,0.,0.;                                       101P    119
126,1,1,0,0,1,0,0.,0.,0.3,0.3,1.,1.,-7.47497773207483,7.,            103P    120
13.3531400642598,-7.47497773207483,10.,13.3531400642598,0.,0.3,      103P    121
0.,0.,0.;                                                            103P    122
126,1,1,0,0,1,0,0.,0.,0.3,0.3,1.,1.,-5.83981349605732,7.,            105P    123
8.32062201449094,-5.83981349605732,10.,8.32062201449094,0.,0.3,      105P    124
0.,0.,0.;                                                            105P    125
126,2,2,0,0,0,0,-1.03224110461257,-1.03224110461257,                 107P    126
-1.03224110461257,0.,0.,0.,1.,0.869740264966535,1.,                  107P    127
-5.83981349605732,10.,8.32062201449094,-4.90116837923638,10.,        107P    128
6.25412045363404,-2.64575131106459,10.,6.,-1.03224110461257,0.,      107P    129
0.,0.,0.;                                                            107P    130
126,1,1,0,0,1,0,0.,0.,0.3,0.3,1.,1.,-2.64575131106459,7.,6.,         109P    131
-2.64575131106459,10.,6.,0.,0.3,0.,0.,0.;                            109P    132
126,1,1,0,0,1,0,0.,0.,0.3,0.3,1.,1.,2.6457513110646,7.,6.,           111P    133
2.6457513110646,10.,6.,0.,0.3,0.,0.,0.;                              111P    134
126,2,2,0,0,0,0,-1.03224110461257,-1.03224110461257,                 113P    135
-1.03224110461257,0.,0.,0.,1.,0.869740264966533,1.,                  113P    136
2.6457513110646,10.,6.,4.90116837923638,10.,6.25412045363404,        113P    137
5.83981349605732,10.,8.32062201449094,-1.03224110461257,0.,0.,       113P    138
0.,0.;                                                               113P    139
126,1,1,0,0,1,0,0.,0.,0.3,0.3,1.,1.,5.83981349605732,7.,             115P    140
8.32062201449094,5.83981349605732,10.,8.32062201449094,0.,0.3,       115P    141
0.,0.,0.;                                                            115P    142
126,1,1,0,0,1,0,0.,0.,0.3,0.3,1.,1.,7.47497773207483,7.,             117P    143
13.3531400642598,7.47497773207483,10.,13.3531400642598,0.,0.3,       117P    144
0.,0.,0.;                                                            117P    145
126,2,2,0,0,0,0,-1.03224110461257,-1.03224110461257,                 119P    146
-1.03224110461257,0.,0.,0.,1.,0.869740264966531,1.,                  119P    147
7.47497773207483,10.,13.3531400642598,7.9302570221907,10.,           119P    148
15.5766967026991,6.25495453958837,10.,17.1079853587474,              119P    149
-1.03224110461257,0.,0.,0.,0.;                                       119P    150
126,1,1,0,0,1,0,0.,0.,0.3,0.3,1.,1.,6.25495453958837,7.,             121P    151
17.1079853587474,6.25495453958837,10.,17.1079853587474,0.,0.3,       121P    152
0.,0.,0.;                                                            121P    153
126,2,2,0,0,0,0,-1.66521204389036,-1.66521204389036,                 123P    154
-1.66521204389036,-0.219743548263522,-0.219743548263522,             123P    155
-0.219743548263522,1.,0.750000000000002,1.,-6.25495453958837,        123P    156
10.,17.1079853587474,-2.74299784403154,10.,16.7754126404164,         123P    157
-1.97403899250626,10.,20.2182525625019,-1.66521204389036,            123P    158
-0.219743548263522,0.,0.,0.;                                         123P    159
126,2,2,0,0,0,0,-0.408574982454437,-0.408574982454437,               125P    160
-0.408574982454437,1.03689351317239,1.03689351317239,                125P    161
1.03689351317239,1.,0.75,1.,-5.83981349605732,10.,                   125P    162
8.32062201449094,-4.43826374271071,10.,11.5579206929169,             125P    163
-7.47497773207483,10.,13.3531400642598,-0.408574982454437,           125P    164
1.03689351317239,0.,0.,0.;                                           125P    165
126,2,2,0,0,0,0,0.84806207898148,0.84806207898148,                   127P    166
0.84806207898148,2.29353057460831,2.29353057460831,                  127P    167
2.29353057460831,1.,0.749999999999999,1.,2.6457513110646,10.,6.,     127P    168
2.22044604925031D-15,10.,8.33333333333334,-2.64575131106459,10.,     127P    169
6.,0.84806207898148,2.29353057460831,0.,0.,0.;                       127P    170
126,2,2,0,0,0,0,-4.17848616676219,-4.17848616676219,                 129P    171
-4.17848616676219,-2.73301767113536,-2.73301767113536,               129P    172
-2.73301767113536,1.,0.750000000000001,1.,7.47497773207483,10.,      129P    173
13.3531400642598,4.43826374271071,10.,11.5579206929169,              129P    174
5.83981349605732,10.,8.32062201449094,-4.17848616676219,             129P    175
-2.73301767113536,0.,0.,0.;                                          129P    176
126,2,2,0,0,0,0,-2.92184910532627,-2.92184910532627,                 131P    177
-2.92184910532627,-1.47638060969944,-1.47638060969944,               131P    178
-1.47638060969944,1.,0.749999999999997,1.,1.97403899250625,10.,      131P    179
20.2182525625019,2.74299784403153,10.,16.7754126404164,              131P    180
6.25495453958837,10.,17.1079853587474,-2.92184910532627,             131P    181
-1.47638060969944,0.,0.,0.;                                          131P    182
126,8,2,0,1,0,0,-3.14159265358979,-3.14159265358979,                 133P    183
-3.14159265358979,-1.5707963267949,-1.5707963267949,0.,0.,           133P    184
1.5707963267949,1.5707963267949,3.14159265358979,                    133P    185
3.14159265358979,3.14159265358979,1.,0.707106781186549,1.,           133P    186
0.707106781186548,1.,0.707106781186548,1.,0.707106781186549,1.,      133P    187
-1.25,10.,13.,-1.25,10.,11.75,7.65404249467096D-17,10.,11.75,        133P    188
1.25,10.,11.75,1.25,10.,13.,1.25,10.,14.25,7.65404249467096D-17,     133P    189
10.,14.25,-1.25,10.,14.25,-1.25,10.,13.,-3.14159265358979,           133P    190
3.14159265358979,0.,0.,0.;                                           133P    191
126,8,2,0,1,0,0,-3.14159265358979,-3.14159265358979,                 135P    192
-3.14159265358979,-1.5707963267949,-1.5707963267949,0.,0.,           135P    193
1.5707963267949,1.5707963267949,3.14159265358979,                    135P    194
3.14159265358979,3.14159265358979,1.,0.707106781186549,1.,           135P    195
0.707106781186548,1.,0.707106781186548,1.,0.707106781186549,1.,      135P    196
-1.25,6.,13.,-1.25,6.,14.25,7.65404249467096D-17,6.,14.25,1.25,      135P    197
6.,14.25,1.25,6.,13.,1.25,6.,11.75,7.65404249467096D-17,6.,          135P    198
11.75,-1.25,6.,11.75,-1.25,6.,13.,-3.14159265358979,                 135P    199
3.14159265358979,0.,0.,0.;                                           135P    200
126,1,1,0,0,1,0,-0.8,-0.8,2.4,2.4,1.,1.,-1.25,6.,13.,-1.25,10.,      137P    201
13.,-0.8,2.4,0.,0.,0.;                                               137P    202
126,8,2,0,1,0,0,-3.14159265358979,-3.14159265358979,                 139P    203
-3.14159265358979,-1.5707963267949,-1.5707963267949,0.,0.,           139P    204
1.5707963267949,1.5707963267949,3.14159265358979,                    139P    205
3.14159265358979,3.14159265358979,1.,0.707106781186548,1.,           139P    206
0.707106781186548,1.,0.707106781186547,1.,0.707106781186547,1.,      139P    207
3.5,6.,13.,3.5,6.,16.5,-2.14313189850787D-16,6.,16.5,-3.5,6.,        139P    208
16.5,-3.5,6.,13.,-3.5,6.,9.5,-2.14313189850787D-16,6.,9.5,3.5,       139P    209
6.,9.5,3.5,6.,13.,-3.14159265358979,3.14159265358979,0.,0.,0.;       139P    210
126,1,1,0,0,1,0,-0.285714285714286,-0.285714285714286,0.,0.,1.,      141P    211
1.,3.5,6.,13.,3.5,7.,13.,-0.285714285714286,0.,0.,0.,0.;             141P    212
128,1,2,1,2,0,0,0,0,0,-0.75,-0.75,0.,0.,0.,0.,0.,                    143P    213
1.03224110461257,1.03224110461257,1.03224110461257,1.,1.,            143P    214
0.869740264966533,0.869740264966533,1.,1.,-1.97403899250626,10.,     143P    215
20.2182525625019,-1.97403899250626,7.,20.2182525625019,              143P    216
-2.4980018054066D-15,10.,21.3383656873338,-2.4980018054066D-15,      143P    217
7.,21.3383656873338,1.97403899250625,10.,20.2182525625019,           143P    218
1.97403899250625,7.,20.2182525625019,-0.75,0.,0.,                    143P    219
1.03224110461257;                                                    143P    220
128,1,1,1,1,0,0,1,0,0,-0.79302570221907,-0.79302570221907,           145P    221
0.793025702219069,0.793025702219069,-0.929328071545902,              145P    222
-0.929328071545902,0.604508497187474,0.604508497187474,1.,1.,1.,     145P    223
1.,7.9302570221907,7.,21.3383656873338,-7.9302570221907,7.,          145P    224
21.3383656873338,7.9302570221907,7.,6.,-7.9302570221907,7.,6.,       145P    225
-0.79302570221907,0.793025702219069,-0.929328071545902,              145P    226
0.604508497187474;                                                   145P    227
128,1,2,1,2,0,0,0,0,0,-0.75,-0.75,0.,0.,0.,0.,0.,                    147P    228
1.03224110461257,1.03224110461257,1.03224110461257,1.,1.,            147P    229
0.869740264966533,0.869740264966533,1.,1.,-7.47497773207483,10.,     147P    230
13.3531400642598,-7.47497773207483,7.,13.3531400642598,              147P    231
-7.9302570221907,10.,15.5766967026991,-7.9302570221907,7.,           147P    232
15.5766967026991,-6.25495453958837,10.,17.1079853587474,             147P    233
-6.25495453958837,7.,17.1079853587474,-0.75,0.,0.,                   147P    234
1.03224110461257;                                                    147P    235
128,1,2,1,2,0,0,0,0,0,-0.75,-0.75,0.,0.,0.,0.,0.,                    149P    236
1.03224110461257,1.03224110461257,1.03224110461257,1.,1.,            149P    237
0.869740264966533,0.869740264966533,1.,1.,-2.64575131106459,10.,     149P    238
6.,-2.64575131106459,7.,6.,-4.90116837923638,10.,                    149P    239
6.25412045363404,-4.90116837923638,7.,6.25412045363404,              149P    240
-5.83981349605732,10.,8.32062201449094,-5.83981349605732,7.,         149P    241
8.32062201449094,-0.75,0.,0.,1.03224110461257;                       149P    242
128,1,2,1,2,0,0,0,0,0,-0.75,-0.75,0.,0.,-6.93889390390723D-17,       151P    243
-6.93889390390723D-17,-6.93889390390723D-17,1.03224110461257,        151P    244
1.03224110461257,1.03224110461257,1.,1.,0.869740264966533,           151P    245
0.869740264966533,1.,1.,5.83981349605732,10.,8.32062201449094,       151P    246
5.83981349605732,7.,8.32062201449094,4.90116837923638,10.,           151P    247
6.25412045363405,4.90116837923638,7.,6.25412045363405,               151P    248
2.6457513110646,10.,6.,2.6457513110646,7.,6.,-0.75,0.,               151P    249
-6.93889390390723D-17,1.03224110461257;                              151P    250
128,1,2,1,2,0,0,0,0,0,-0.75,-0.75,0.,0.,-6.93889390390723D-17,       153P    251
-6.93889390390723D-17,-6.93889390390723D-17,1.03224110461257,        153P    252
1.03224110461257,1.03224110461257,1.,1.,0.869740264966533,           153P    253
0.869740264966533,1.,1.,6.25495453958837,10.,17.1079853587474,       153P    254
6.25495453958837,7.,17.1079853587474,7.9302570221907,10.,            153P    255
15.5766967026991,7.9302570221907,7.,15.5766967026991,                153P    256
7.47497773207483,10.,13.3531400642598,7.47497773207483,7.,           153P    257
13.3531400642598,-0.75,0.,-6.93889390390723D-17,                     153P    258
1.03224110461257;                                                    153P    259
128,1,2,1,2,0,0,0,0,0,0.,0.,0.75,0.75,0.219743548263522,             155P    260
0.219743548263522,0.219743548263522,1.66521204389036,                155P    261
1.66521204389036,1.66521204389036,1.,1.,0.749999999999999,           155P    262
0.749999999999999,1.,1.,-1.97403899250626,7.,20.2182525625019,       155P    263
-1.97403899250626,10.,20.2182525625019,-2.74299784403154,7.,         155P    264
16.7754126404164,-2.74299784403154,10.,16.7754126404164,             155P    265
-6.25495453958837,7.,17.1079853587474,-6.25495453958837,10.,         155P    266
17.1079853587474,0.,0.75,0.219743548263522,1.66521204389036;         155P    267
128,1,2,1,2,0,0,0,0,0,0.,0.,0.75,0.75,-1.03689351317239,             157P    268
-1.03689351317239,-1.03689351317239,0.408574982454437,               157P    269
0.408574982454437,0.408574982454437,1.,1.,0.75,0.75,1.,1.,           157P    270
-7.47497773207483,7.,13.3531400642598,-7.47497773207483,10.,         157P    271
13.3531400642598,-4.43826374271071,7.,11.5579206929169,              157P    272
-4.43826374271071,10.,11.5579206929169,-5.83981349605732,7.,         157P    273
8.32062201449094,-5.83981349605732,10.,8.32062201449094,0.,0.75,     157P    274
-1.03689351317239,0.408574982454437;                                 157P    275
128,1,2,1,2,0,0,0,0,0,0.,0.,0.75,0.75,-2.29353057460831,             159P    276
-2.29353057460831,-2.29353057460831,-0.84806207898148,               159P    277
-0.84806207898148,-0.84806207898148,1.,1.,0.749999999999999,         159P    278
0.749999999999999,1.,1.,-2.64575131106459,7.,6.,                     159P    279
-2.64575131106459,10.,6.,2.22044604925031D-15,7.,                    159P    280
8.33333333333334,2.22044604925031D-15,10.,8.33333333333334,          159P    281
2.6457513110646,7.,6.,2.6457513110646,10.,6.,0.,0.75,                159P    282
-2.29353057460831,-0.84806207898148;                                 159P    283
128,1,2,1,2,0,0,0,0,0,0.,0.,0.749999999999999,0.749999999999999,     161P    284
2.73301767113536,2.73301767113536,2.73301767113536,                  161P    285
4.17848616676219,4.17848616676219,4.17848616676219,1.,1.,            161P    286
0.749999999999999,0.749999999999999,1.,1.,5.83981349605732,7.,       161P    287
8.32062201449094,5.83981349605732,10.,8.32062201449094,              161P    288
4.43826374271071,7.,11.5579206929169,4.43826374271071,10.,           161P    289
11.5579206929169,7.47497773207484,7.,13.3531400642598,               161P    290
7.47497773207484,10.,13.3531400642598,0.,0.749999999999999,          161P    291
2.73301767113536,4.17848616676219;                                   161P    292
128,1,2,1,2,0,0,0,0,0,0.,0.,0.75,0.75,1.47638060969944,              163P    293
1.47638060969944,1.47638060969944,2.92184910532627,                  163P    294
2.92184910532627,2.92184910532627,1.,1.,0.749999999999998,           163P    295
0.749999999999998,1.,1.,6.25495453958837,7.,17.1079853587474,        163P    296
6.25495453958837,10.,17.1079853587474,2.74299784403153,7.,           163P    297
16.7754126404164,2.74299784403153,10.,16.7754126404164,              163P    298
1.97403899250625,7.,20.2182525625019,1.97403899250625,10.,           163P    299
20.2182525625019,0.,0.75,1.47638060969944,2.92184910532627;          163P    300
128,1,1,1,1,0,0,1,0,0,-0.79302570221907,-0.79302570221907,           165P    301
0.793025702219069,0.793025702219069,-0.929328071545902,              165P    302
-0.929328071545902,0.604508497187474,0.604508497187474,1.,1.,1.,     165P    303
1.,-7.9302570221907,10.,21.3383656873338,7.9302570221907,10.,        165P    304
21.3383656873338,-7.9302570221907,10.,6.,7.9302570221907,10.,6.,     165P    305
-0.79302570221907,0.793025702219069,-0.929328071545902,              165P    306
0.604508497187474;                                                   165P    307
128,1,8,1,2,0,1,0,0,1,-2.4,-2.4,0.8,0.8,-3.14159265358979,           167P    308
-3.14159265358979,-3.14159265358979,-1.5707963267949,                167P    309
-1.5707963267949,0.,0.,1.5707963267949,1.5707963267949,              167P    310
3.14159265358979,3.14159265358979,3.14159265358979,1.,1.,            167P    311
0.707106781186548,0.707106781186548,1.,1.,0.707106781186548,         167P    312
0.707106781186548,1.,1.,0.707106781186548,0.707106781186548,1.,      167P    313
1.,0.707106781186548,0.707106781186548,1.,1.,-1.25,10.,13.,          167P    314
-1.25,6.,13.,-1.25,10.,11.75,-1.25,6.,11.75,0.,10.,11.75,0.,6.,      167P    315
11.75,1.25,10.,11.75,1.25,6.,11.75,1.25,10.,13.,1.25,6.,13.,         167P    316
1.25,10.,14.25,1.25,6.,14.25,0.,10.,14.25,0.,6.,14.25,-1.25,10.,     167P    317
14.25,-1.25,6.,14.25,-1.25,10.,13.,-1.25,6.,13.,-2.4,0.8,            167P    318
-3.14159265358979,3.14159265358979;                                  167P    319
128,1,8,1,2,0,1,0,0,1,0.,0.,0.285714285714286,0.285714285714286,     169P    320
-3.14159265358979,-3.14159265358979,-3.14159265358979,               169P    321
-1.5707963267949,-1.5707963267949,0.,0.,1.5707963267949,             169P    322
1.5707963267949,3.14159265358979,3.14159265358979,                   169P    323
3.14159265358979,1.,1.,0.707106781186548,0.707106781186548,1.,       169P    324
1.,0.707106781186548,0.707106781186548,1.,1.,0.707106781186548,      169P    325
0.707106781186548,1.,1.,0.707106781186548,0.707106781186548,1.,      169P    326
1.,3.5,6.,13.,3.5,7.,13.,3.5,6.,16.5,3.5,7.,16.5,0.,6.,16.5,0.,      169P    327
7.,16.5,-3.5,6.,16.5,-3.5,7.,16.5,-3.5,6.,13.,-3.5,7.,13.,-3.5,      169P    328
6.,9.5,-3.5,7.,9.5,0.,6.,9.5,0.,7.,9.5,3.5,6.,9.5,3.5,7.,9.5,        169P    329
3.5,6.,13.,3.5,7.,13.,0.,0.285714285714286,-3.14159265358979,        169P    330
3.14159265358979;                                                    169P    331
128,1,1,1,1,0,0,1,0,0,-0.35,-0.35,0.35,0.35,-0.445491502812526,      171P    332
-0.445491502812526,0.254508497187474,0.254508497187474,1.,1.,1.,     171P    333
1.,3.5,6.,16.5,-3.5,6.,16.5,3.5,6.,9.5,-3.5,6.,9.5,-0.35,0.35,       171P    334
-0.445491502812526,0.254508497187474;                                171P    335
502,24,-1.97403899250626,7.,20.2182525625019,1.97403899250625,       173P    336
7.,20.2182525625019,1.97403899250625,10.,20.2182525625019,           173P    337
-1.97403899250626,10.,20.2182525625019,-6.25495453958837,7.,         173P    338
17.1079853587474,-7.47497773207483,7.,13.3531400642598,              173P    339
-5.83981349605732,7.,8.32062201449094,-2.64575131106459,7.,6.,       173P    340
2.6457513110646,7.,6.,5.83981349605732,7.,8.32062201449094,          173P    341
7.47497773207483,7.,13.3531400642598,6.25495453958837,7.,            173P    342
17.1079853587474,3.5,7.,13.,-6.25495453958837,10.,                   173P    343
17.1079853587474,-7.47497773207483,10.,13.3531400642598,             173P    344
-5.83981349605732,10.,8.32062201449094,-2.64575131106459,10.,6.,     173P    345
2.6457513110646,10.,6.,5.83981349605732,10.,8.32062201449094,        173P    346
7.47497773207483,10.,13.3531400642598,6.25495453958837,10.,          173P    347
17.1079853587474,-1.25,10.,13.,-1.25,6.,13.,3.5,6.,13.;              173P    348
504,36,71,173,1,173,2,73,173,2,173,3,75,173,3,173,4,77,173,1,        175P    349
173,4,79,173,1,173,5,81,173,6,173,5,83,173,6,173,7,85,173,8,173,     175P    350
7,87,173,8,173,9,89,173,10,173,9,91,173,10,173,11,93,173,12,173,     175P    351
11,95,173,12,173,2,97,173,13,173,13,99,173,5,173,14,101,173,14,      175P    352
173,15,103,173,6,173,15,105,173,7,173,16,107,173,16,173,17,109,      175P    353
173,8,173,17,111,173,9,173,18,113,173,18,173,19,115,173,10,173,      175P    354
19,117,173,11,173,20,119,173,20,173,21,121,173,12,173,21,123,        175P    355
173,14,173,4,125,173,16,173,15,127,173,18,173,17,129,173,20,173,     175P    356
19,131,173,3,173,21,133,173,22,173,22,135,173,23,173,23,137,173,     175P    357
23,173,22,139,173,24,173,24,141,173,24,173,13;                       175P    358
406,1,3HNov;                                                         177P    359
314,0.,0.,0.,13HSemi-Polished;                                       179P    360
S      1G      2D    180P    360                                        T      1
