                                                                        S      1
,,7Hz_adj_b,7Hz_adj_b,7Hunknown,7Hunknown,32,38,7,99,15,,1.,2,2HMM,1,   G      1
0.08,15H20150303.215604,0.01,10000.,7Hunknown,7Hunknown,11,0,;          G      2
     186       1                                                00000000D      1
     186            -191       1       0                               0D      2
     514       2                                                00010000D      3
     514                       2       1                               0D      4
     510       4                                                00010000D      5
     510            -191       1       1                               0D      6
     510       5                                                00010000D      7
     510            -191       1       1                               0D      8
     510       6                                                00010000D      9
     510            -191       1       1                               0D     10
     510       7                                                00010000D     11
     510            -191       1       1                               0D     12
     510       8                                                00010000D     13
     510            -191       1       1                               0D     14
     510       9                                                00010000D     15
     510            -191       1       1                               0D     16
     510      10                                                00010000D     17
     510            -191       1       1                               0D     18
     510      11                                                00010000D     19
     510            -191       1       1                               0D     20
     510      12                                                00010000D     21
     510            -191       1       1                               0D     22
     510      13                                                00010000D     23
     510            -191       1       1                               0D     24
     510      14                                                00010000D     25
     510            -191       1       1                               0D     26
     510      15                                                00010000D     27
     510            -191       1       1                               0D     28
     510      16                                                00010000D     29
     510            -191       1       1                               0D     30
     510      17                                                00010000D     31
     510            -191       1       1                               0D     32
     508      18                                                00010000D     33
     508                       1       1                               0D     34
     508      19                                                00010000D     35
     508                       1       1                               0D     36
     508      20                                                00010000D     37
     508                       2       1                               0D     38
     508      22                                                00010000D     39
     508                       2       1                               0D     40
     508      24                                                00010000D     41
     508                       1       1                               0D     42
     508      25                                                00010000D     43
     508                       1       1                               0D     44
     508      26                                                00010000D     45
     508                       1       1                               0D     46
     508      27                                                00010000D     47
     508                       1       1                               0D     48
     508      28                                                00010000D     49
     508                       1       1                               0D     50
     508      29                                                00010000D     51
     508                       1       1                               0D     52
     508      30                                                00010000D     53
     508                       1       1                               0D     54
     508      31                                                00010000D     55
     508                       1       1                               0D     56
     508      32                                                00010000D     57
     508                       1       1                               0D     58
     508      33                                                00010000D     59
     508                       1       1                               0D     60
     508      34                                                00010000D     61
     508                       1       1                               0D     62
     508      35                                                00010000D     63
     508                       1       1                               0D     64
     508      36                                                00010000D     65
     508                       2       1                               0D     66
     508      38                                                00010000D     67
     508                       1       1                               0D     68
     508      39                                                00010000D     69
     508                       1       1                               0D     70
     508      40                                                00010000D     71
     508                       2       1                               0D     72
     508      42                                                00010000D     73
     508                       1       1                               0D     74
     508      43                                                00010000D     75
     508                       1       1                               0D     76
     126      44                                                00010000D     77
     126       0              12       0                               0D     78
     126      56                                                00010000D     79
     126       0               4       0                               0D     80
     126      60                                                00010000D     81
     126       0              12       0                               0D     82
     126      72                                                00010000D     83
     126       0              12       0                               0D     84
     126      84                                                00010000D     85
     126       0               4       0                               0D     86
     126      88                                                00010000D     87
     126       0              12       0                               0D     88
     126     100                                                00010000D     89
     126       0              10       0                               0D     90
     126     110                                                00010000D     91
     126       0               8       0                               0D     92
     126     118                                                00010000D     93
     126       0               2       0                               0D     94
     126     120                                                00010000D     95
     126       0               7       0                               0D     96
     126     127                                                00010000D     97
     126       0              10       0                               0D     98
     126     137                                                00010000D     99
     126       0               8       0                               0D    100
     126     145                                                00010000D    101
     126       0              10       0                               0D    102
     126     155                                                00010000D    103
     126       0               2       0                               0D    104
     126     157                                                00010000D    105
     126       0              10       0                               0D    106
     126     167                                                00010000D    107
     126       0               7       0                               0D    108
     126     174                                                00010000D    109
     126       0              12       0                               0D    110
     126     186                                                00010000D    111
     126       0               3       0                               0D    112
     126     189                                                00010000D    113
     126       0              12       0                               0D    114
     126     201                                                00010000D    115
     126       0               3       0                               0D    116
     126     204                                                00010000D    117
     126       0               4       0                               0D    118
     126     208                                                00010000D    119
     126       0               4       0                               0D    120
     126     212                                                00010000D    121
     126       0               3       0                               0D    122
     126     215                                                00010000D    123
     126       0               6       0                               0D    124
     126     221                                                00010000D    125
     126       0               6       0                               0D    126
     126     227                                                00010000D    127
     126       0               3       0                               0D    128
     126     230                                                00010000D    129
     126       0               3       0                               0D    130
     126     233                                                00010000D    131
     126       0               3       0                               0D    132
     126     236                                                00010000D    133
     126       0               3       0                               0D    134
     126     239                                                00010000D    135
     126       0               3       0                               0D    136
     126     242                                                00010000D    137
     126       0               3       0                               0D    138
     126     245                                                00010000D    139
     126       0               3       0                               0D    140
     126     248                                                00010000D    141
     126       0               3       0                               0D    142
     126     251                                                00010000D    143
     126       0               3       0                               0D    144
     126     254                                                00010000D    145
     126       0               3       0                               0D    146
     126     257                                                00010000D    147
     126       0               8       0                               0D    148
     126     265                                                00010000D    149
     126       0               8       0                               0D    150
     126     273                                                00010000D    151
     126       0               3       0                               0D    152
     126     276                                                00010000D    153
     126       0               4       0                               0D    154
     126     280                                                00010000D    155
     126       0               4       0                               0D    156
     128     284                                                00010000D    157
     128       0    -191      22       0                               0D    158
     128     306                                                00010000D    159
     128       0    -191      21       0                               0D    160
     128     327                                                00010000D    161
     128       0    -191      11       0                               0D    162
     128     338                                                00010000D    163
     128       0    -191      11       0                               0D    164
     128     349                                                00010000D    165
     128       0    -191      21       0                               0D    166
     128     370                                                00010000D    167
     128       0    -191       6       0                               0D    168
     128     376                                                00010000D    169
     128       0    -191       9       0                               0D    170
     128     385                                                00010000D    171
     128       0    -191       5       0                               0D    172
     128     390                                                00010000D    173
     128       0    -191       4       0                               0D    174
     128     394                                                00010000D    175
     128       0    -191       5       0                               0D    176
     128     399                                                00010000D    177
     128       0    -191      13       0                               0D    178
     128     412                                                00010000D    179
     128       0    -191       6       0                               0D    180
     128     418                                                00010000D    181
     128       0    -191       7       0                               0D    182
     128     425                                                00010000D    183
     128       0    -191       7       0                               0D    184
     502     432                                                00010000D    185
     502                      17       1                               0D    186
     504     449                                                00010001D    187
     504                      11       1                               0D    188
     406     460                                                00000000D    189
     406                       1      15                               0D    190
     314     461                                                00000200D    191
     314                       1       0                               0D    192
186,3,1,0,0,1,189;                                                     1P      1
514,14,5,1,7,1,9,1,11,1,13,1,15,1,17,1,19,1,21,1,23,1,25,1,27,1,       3P      2
29,1,31,1;                                                             3P      3
510,157,1,1,33;                                                        5P      4
510,159,1,1,35;                                                        7P      5
510,161,1,1,37;                                                        9P      6
510,163,1,1,39;                                                       11P      7
510,165,1,1,41;                                                       13P      8
510,167,1,1,43;                                                       15P      9
510,169,1,1,45;                                                       17P     10
510,171,3,1,47,49,51;                                                 19P     11
510,173,1,1,53;                                                       21P     12
510,175,3,1,55,57,59;                                                 23P     13
510,177,1,1,61;                                                       25P     14
510,179,1,1,63;                                                       27P     15
510,181,3,1,65,67,69;                                                 29P     16
510,183,3,1,71,73,75;                                                 31P     17
508,4,0,187,1,0,0,0,187,2,1,0,0,187,3,0,0,0,187,2,0,0;                33P     18
508,4,0,187,4,0,0,0,187,5,1,0,0,187,6,0,0,0,187,5,0,0;                35P     19
508,6,0,187,7,0,0,0,187,8,0,0,0,187,9,1,0,0,187,10,0,0,0,187,11,      37P     20
0,0,0,187,9,0,0;                                                      37P     21
508,6,0,187,12,0,0,0,187,13,0,0,0,187,14,1,0,0,187,15,0,0,0,187,      39P     22
16,0,0,0,187,14,0,0;                                                  39P     23
508,4,0,187,17,1,0,0,187,18,1,0,0,187,19,0,0,0,187,20,0,0;            41P     24
508,4,0,187,21,1,0,0,187,20,1,0,0,187,22,0,0,0,187,23,0,0;            43P     25
508,4,0,187,24,1,0,0,187,23,1,0,0,187,25,0,0,0,187,26,0,0;            45P     26
508,4,0,187,27,1,0,0,187,26,1,0,0,187,28,0,0,0,187,29,0,0;            47P     27
508,1,0,187,1,1,0;                                                    49P     28
508,1,0,187,4,1,0;                                                    51P     29
508,4,0,187,30,1,0,0,187,29,1,0,0,187,31,0,0,0,187,32,0,0;            53P     30
508,4,0,187,33,0,0,0,187,32,1,0,0,187,34,0,0,0,187,35,0,0;            55P     31
508,1,0,187,3,1,0;                                                    57P     32
508,1,0,187,6,1,0;                                                    59P     33
508,4,0,187,36,1,0,0,187,35,1,0,0,187,37,0,0,0,187,38,0,0;            61P     34
508,4,0,187,39,0,0,0,187,38,1,0,0,187,40,0,0,0,187,18,0,0;            63P     35
508,8,0,187,40,1,0,0,187,37,1,0,0,187,34,1,0,0,187,31,1,0,0,187,      65P     36
28,1,0,0,187,25,1,0,0,187,22,1,0,0,187,19,1,0;                        65P     37
508,2,0,187,12,1,0,0,187,13,1,0;                                      67P     38
508,2,0,187,7,1,0,0,187,8,1,0;                                        69P     39
508,8,0,187,39,1,0,0,187,17,0,0,0,187,21,0,0,0,187,24,0,0,0,187,      71P     40
27,0,0,0,187,30,0,0,0,187,33,1,0,0,187,36,0,0;                        71P     41
508,2,0,187,15,1,0,0,187,16,1,0;                                      73P     42
508,2,0,187,10,1,0,0,187,11,1,0;                                      75P     43
126,8,2,0,1,0,0,-3.14159265358979,-3.14159265358979,                  77P     44
-3.14159265358979,-1.5707963267949,-1.5707963267949,0.,0.,            77P     45
1.5707963267949,1.5707963267949,3.14159265358979,                     77P     46
3.14159265358979,3.14159265358979,1.,0.707106781186545,1.,            77P     47
0.707106781186545,1.,0.707106781186544,1.,0.707106781186545,1.,       77P     48
-14.1595587763326,3.,13.8393914808521,-14.1595587763326,4.,           77P     49
13.8393914808521,-13.3935143332136,4.,13.1966038711656,               77P     50
-12.6274698900946,4.,12.553816261479,-12.6274698900946,3.,            77P     51
12.553816261479,-12.6274698900946,2.,12.553816261479,                 77P     52
-13.3935143332136,2.,13.1966038711656,-14.1595587763326,2.,           77P     53
13.8393914808521,-14.1595587763326,3.,13.8393914808521,               77P     54
-3.14159265358979,3.14159265358979,0.,0.,0.;                          77P     55
126,1,1,0,0,1,0,-4.20554203218005D-16,-4.20554203218005D-16,          79P     56
2.99999999999996,2.99999999999996,1.,1.,-14.1595587763326,3.,         79P     57
13.8393914808521,-16.0879216053922,3.,11.5412581514952,               79P     58
-4.20554203218005D-16,2.99999999999996,0.,0.,0.;                      79P     59
126,8,2,0,1,0,0,-3.14159265358979,-3.14159265358979,                  81P     60
-3.14159265358979,-1.5707963267949,-1.5707963267949,0.,0.,            81P     61
1.5707963267949,1.5707963267949,3.14159265358979,                     81P     62
3.14159265358979,3.14159265358979,1.,0.707106781186545,1.,            81P     63
0.707106781186544,1.,0.707106781186545,1.,0.707106781186545,1.,       81P     64
-16.0879216053922,3.,11.5412581514952,-16.0879216053922,2.,           81P     65
11.5412581514952,-15.3218771622732,2.,10.8984705418087,               81P     66
-14.5558327191542,2.,10.2556829321221,-14.5558327191542,3.,           81P     67
10.2556829321221,-14.5558327191542,4.,10.2556829321221,               81P     68
-15.3218771622732,4.,10.8984705418087,-16.0879216053922,4.,           81P     69
11.5412581514952,-16.0879216053922,3.,11.5412581514952,               81P     70
-3.14159265358979,3.14159265358979,0.,0.,0.;                          81P     71
126,8,2,0,1,0,0,-3.14159265358979,-3.14159265358979,                  83P     72
-3.14159265358979,-1.5707963267949,-1.5707963267949,0.,0.,            83P     73
1.5707963267949,1.5707963267949,3.14159265358979,                     83P     74
3.14159265358979,3.14159265358979,1.,0.707106781186549,1.,            83P     75
0.707106781186549,1.,0.707106781186549,1.,0.707106781186549,1.,       83P     76
-6.88213656670228,3.,7.73290918882996,-6.88213656670228,4.,           83P     77
7.73290918882996,-6.1160921235833,4.,7.09012157914342,                83P     78
-5.35004768046432,4.,6.44733396945688,-5.35004768046432,3.,           83P     79
6.44733396945688,-5.35004768046432,2.,6.44733396945688,               83P     80
-6.1160921235833,2.,7.09012157914342,-6.88213656670228,2.,            83P     81
7.73290918882996,-6.88213656670228,3.,7.73290918882996,               83P     82
-3.14159265358979,3.14159265358979,0.,0.,0.;                          83P     83
126,1,1,0,0,1,0,1.17961196366423D-15,1.17961196366423D-15,            85P     84
2.99999999999996,2.99999999999996,1.,1.,-6.88213656670228,3.,         85P     85
7.73290918882996,-8.81049939576187,3.,5.43477585947306,               85P     86
1.17961196366423D-15,2.99999999999996,0.,0.,0.;                       85P     87
126,8,2,0,1,0,0,-3.14159265358979,-3.14159265358979,                  87P     88
-3.14159265358979,-1.5707963267949,-1.5707963267949,0.,0.,            87P     89
1.5707963267949,1.5707963267949,3.14159265358979,                     87P     90
3.14159265358979,3.14159265358979,1.,0.707106781186547,1.,            87P     91
0.707106781186548,1.,0.707106781186548,1.,0.707106781186547,1.,       87P     92
-8.81049939576187,3.,5.43477585947306,-8.81049939576187,2.,           87P     93
5.43477585947306,-8.04445495264289,2.,4.79198824978652,               87P     94
-7.27841050952392,2.,4.14920064009998,-7.27841050952392,3.,           87P     95
4.14920064009998,-7.27841050952392,4.,4.14920064009998,               87P     96
-8.04445495264289,4.,4.79198824978652,-8.81049939576187,4.,           87P     97
5.43477585947306,-8.81049939576187,3.,5.43477585947306,               87P     98
-3.14159265358979,3.14159265358979,0.,0.,0.;                          87P     99
126,6,2,0,0,0,0,-7.72283680039749,-7.72283680039749,                  89P    100
-7.72283680039749,-6.19575541812825,-6.19575541812825,                89P    101
-4.66867403585902,-4.66867403585902,-3.14159265358979,                89P    102
-3.14159265358979,-3.14159265358979,1.,0.722392214338077,1.,          89P    103
0.722392214338077,1.,0.722392214338079,1.,13.1961538461538,6.,        89P    104
-1.4871192516537,14.6196443917219,6.,-1.29935815235631,               89P    105
14.4942706618521,6.,0.130977819221511,14.3688969319824,6.,            89P    106
1.56131379079933,12.9344484659912,6.,1.4985669809485,11.5,6.,         89P    107
1.43582017109766,11.5,6.,-1.83697019872103D-16,                       89P    108
-7.72283680039749,-3.14159265358979,0.,0.,0.;                         89P    109
126,4,2,0,0,0,0,-3.14159265358979,-3.14159265358979,                  91P    110
-3.14159265358979,-2.29062207340385,-2.29062207340385,                91P    111
-1.4396514932179,-1.4396514932179,-1.4396514932179,1.,                91P    112
0.910838530493622,1.,0.910838530493621,1.,11.5,6.,                    91P    113
-1.83697019872103D-16,11.5,6.,-0.679751960572566,                     91P    114
12.0111195141047,6.,-1.12788092661211,12.5222390282093,6.,            91P    115
-1.57600989265165,13.1961538461538,6.,-1.4871192516537,               91P    116
-3.14159265358979,-1.4396514932179,0.,0.,0.;                          91P    117
126,1,1,0,0,1,0,-4.,-4.,0.,0.,1.,1.,11.5,6.,0.,11.5,0.,0.,-4.,        93P    118
0.,0.,0.,0.;                                                          93P    119
126,4,2,0,0,0,0,1.4396514932179,1.4396514932179,1.4396514932179,      95P    120
2.29062207340385,2.29062207340385,3.14159265358979,                   95P    121
3.14159265358979,3.14159265358979,1.,0.910838530493621,1.,            95P    122
0.910838530493622,1.,13.1961538461538,0.,-1.4871192516537,            95P    123
12.5222390282093,0.,-1.57600989265165,12.0111195141047,0.,            95P    124
-1.12788092661211,11.5,0.,-0.679751960572566,11.5,0.,                 95P    125
-1.83697019872103D-16,1.4396514932179,3.14159265358979,0.,0.,0.;      95P    126
126,6,2,0,0,0,0,3.14159265358979,3.14159265358979,                    97P    127
3.14159265358979,4.66867403585902,4.66867403585902,                   97P    128
6.19575541812825,6.19575541812825,7.72283680039749,                   97P    129
7.72283680039749,7.72283680039749,1.,0.722392214338079,1.,            97P    130
0.722392214338077,1.,0.722392214338077,1.,11.5,0.,                    97P    131
-1.83697019872103D-16,11.5,0.,1.43582017109766,12.9344484659912,      97P    132
0.,1.4985669809485,14.3688969319824,0.,1.56131379079933,              97P    133
14.4942706618521,0.,0.130977819221511,14.6196443917219,0.,            97P    134
-1.29935815235631,13.1961538461538,0.,-1.4871192516537,               97P    135
3.14159265358979,7.72283680039749,0.,0.,0.;                           97P    136
126,4,2,0,0,0,0,-4.970548123131,-4.970548123131,-4.970548123131,      99P    137
-4.0560703883604,-4.0560703883604,-3.14159265358979,                  99P    138
-3.14159265358979,-3.14159265358979,1.,0.897274879881117,1.,          99P    139
0.897274879881116,1.,0.816963620173885,6.,3.09395708491769,           99P    140
-0.705308288840605,6.,3.49591507449031,-1.9526541444203,6.,           99P    141
2.53518082043041,-3.2,6.,1.57444656637051,-3.2,6.,                    99P    142
-3.91886975727153D-16,-4.970548123131,-3.14159265358979,0.,0.,        99P    143
0.;                                                                   99P    144
126,6,2,0,0,0,0,-3.14159265358979,-3.14159265358979,                 101P    145
-3.14159265358979,-1.656849374377,-1.656849374377,                   101P    146
-0.172106095164209,-0.172106095164209,1.31263718404858,              101P    147
1.31263718404858,1.31263718404858,1.,0.736867315489756,1.,           101P    148
0.736867315489756,1.,0.736867315489757,1.,-3.2,6.,                   101P    149
-3.91886975727153D-16,-3.2,6.,-2.93583338322389,                     101P    150
-0.275030020077305,6.,-3.18815910645254,2.64993995984539,6.,         101P    151
-3.4404848296812,3.15272405503517,6.,-0.548024664410806,             101P    152
3.65550815022496,6.,2.34443550085959,0.816963620173887,6.,           101P    153
3.09395708491769,-3.14159265358979,1.31263718404858,0.,0.,0.;        101P    154
126,1,1,0,0,1,0,-1.875,-1.875,0.,0.,1.,1.,-3.2,6.,0.,-3.2,0.,0.,     103P    155
-1.875,0.,0.,0.,0.;                                                  103P    156
126,6,2,0,0,0,0,-1.31263718404858,-1.31263718404858,                 105P    157
-1.31263718404858,0.172106095164209,0.172106095164209,               105P    158
1.656849374377,1.656849374377,3.14159265358979,3.14159265358979,     105P    159
3.14159265358979,1.,0.736867315489757,1.,0.736867315489756,1.,       105P    160
0.736867315489756,1.,0.816963620173887,0.,3.09395708491769,          105P    161
3.65550815022496,0.,2.34443550085959,3.15272405503517,0.,            105P    162
-0.548024664410806,2.64993995984539,0.,-3.4404848296812,             105P    163
-0.275030020077305,0.,-3.18815910645254,-3.2,0.,                     105P    164
-2.93583338322389,-3.2,0.,-3.91886975727153D-16,                     105P    165
-1.31263718404858,3.14159265358979,0.,0.,0.;                         105P    166
126,4,2,0,0,0,0,3.14159265358979,3.14159265358979,                   107P    167
3.14159265358979,4.0560703883604,4.0560703883604,4.970548123131,     107P    168
4.970548123131,4.970548123131,1.,0.897274879881116,1.,               107P    169
0.897274879881117,1.,-3.2,0.,-3.91886975727153D-16,-3.2,0.,          107P    170
1.57444656637051,-1.9526541444203,0.,2.53518082043041,               107P    171
-0.705308288840605,0.,3.49591507449031,0.816963620173885,0.,         107P    172
3.09395708491769,3.14159265358979,4.970548123131,0.,0.,0.;           107P    173
126,8,2,0,0,0,0,-2.569602038143,-2.569602038143,-2.569602038143,     109P    174
-1.28531733462246,-1.28531733462246,-0.00103263110191976,            109P    175
-0.00103263110191976,1.28325207241862,1.28325207241862,              109P    176
2.56753677593916,2.56753677593916,2.56753677593916,1.,               109P    177
0.800814515480795,1.,0.800814515480798,1.,0.8008145154808,1.,        109P    178
0.800814515480797,1.,10.0571121221989,0.,1.89457407843864,           109P    179
11.4740244829749,0.,4.0954984222735,13.9856598130542,0.,             109P    180
3.35834404624213,16.4972951431335,0.,2.62118967021075,               109P    181
16.4999981339279,0.,0.00361420821439777,16.5027011247224,0.,         109P    182
-2.61396125378196,13.9925935670792,0.,-3.35630123954822,             109P    183
11.4824860094361,0.,-4.09864122531449,10.0610311878133,0.,           109P    184
-1.90064786875264,-2.569602038143,2.56753677593916,0.,0.,0.;         109P    185
126,1,1,0,0,1,0,0.,0.,0.6,0.6,1.,1.,10.0610311878133,0.,             111P    186
-1.90064786875264,10.0610311878133,6.,-1.90064786875264,0.,0.6,      111P    187
0.,0.,0.;                                                            111P    188
126,8,2,0,0,0,0,-2.569602038143,-2.569602038143,-2.569602038143,     113P    189
-1.28531733462246,-1.28531733462246,-0.00103263110191976,            113P    190
-0.00103263110191976,1.28325207241862,1.28325207241862,              113P    191
2.56753677593916,2.56753677593916,2.56753677593916,1.,               113P    192
0.800814515480795,1.,0.800814515480798,1.,0.8008145154808,1.,        113P    193
0.800814515480797,1.,10.0571121221989,6.,1.89457407843864,           113P    194
11.4740244829749,6.,4.0954984222735,13.9856598130542,6.,             113P    195
3.35834404624213,16.4972951431335,6.,2.62118967021075,               113P    196
16.4999981339279,6.,0.00361420821439777,16.5027011247224,6.,         113P    197
-2.61396125378196,13.9925935670792,6.,-3.35630123954822,             113P    198
11.4824860094361,6.,-4.09864122531449,10.0610311878133,6.,           113P    199
-1.90064786875264,-2.569602038143,2.56753677593916,0.,0.,0.;         113P    200
126,1,1,0,0,1,0,0.,0.,0.6,0.6,1.,1.,10.0571121221989,0.,             115P    201
1.89457407843864,10.0571121221989,6.,1.89457407843864,0.,0.6,0.,     115P    202
0.,0.;                                                               115P    203
126,1,1,0,0,1,0,0.360246786554231,0.360246786554231,                 117P    204
1.01414812071593,1.01414812071593,1.,1.,3.5724981884107,0.,          117P    205
2.73628519964609,10.0571121221989,0.,1.89457407843864,               117P    206
0.360246786554231,1.01414812071593,0.,0.,0.;                         117P    207
126,1,1,0,0,1,0,0.360246786554231,0.360246786554231,                 119P    208
1.01414812071593,1.01414812071593,1.,1.,3.5724981884107,6.,          119P    209
2.73628519964609,10.0571121221989,6.,1.89457407843864,               119P    210
0.360246786554231,1.01414812071593,0.,0.,0.;                         119P    211
126,1,1,0,0,1,0,0.,0.,0.6,0.6,1.,1.,3.5724981884107,0.,              121P    212
2.7362851996461,3.5724981884107,6.,2.7362851996461,0.,0.6,0.,0.,     121P    213
0.;                                                                  121P    214
126,2,2,0,0,0,0,4.17956126384164,4.17956126384164,                   123P    215
4.17956126384164,5.62956641539052,5.62956641539052,                  123P    216
5.62956641539052,1.,0.74849771387636,1.,-2.28586990798841,0.,        123P    217
3.87618353071072,1.14826503587211,0.,5.90136775275474,               123P    218
3.5724981884107,0.,2.7362851996461,4.17956126384164,                 123P    219
5.62956641539052,0.,0.,0.;                                           123P    220
126,2,2,0,0,0,0,4.17956126384164,4.17956126384164,                   125P    221
4.17956126384164,5.62956641539052,5.62956641539052,                  125P    222
5.62956641539052,1.,0.74849771387636,1.,-2.28586990798841,6.,        125P    223
3.87618353071072,1.14826503587211,6.,5.90136775275474,               125P    224
3.5724981884107,6.,2.7362851996461,4.17956126384164,                 125P    225
5.62956641539052,0.,0.,0.;                                           125P    226
126,1,1,0,0,1,0,0.,0.,0.6,0.6,1.,1.,-2.28586990798841,0.,            127P    227
3.87618353071072,-2.28586990798841,6.,3.87618353071072,0.,0.6,       127P    228
0.,0.,0.;                                                            127P    229
126,1,1,0,0,1,0,0.,0.,1.97573593128807,1.97573593128807,1.,1.,       129P    230
-17.4208852203257,0.,16.5759692971554,-2.28586990798841,0.,          129P    231
3.87618353071072,0.,1.97573593128807,0.,0.,0.;                       129P    232
126,1,1,0,0,1,0,0.,0.,1.97573593128807,1.97573593128807,1.,1.,       131P    233
-17.4208852203257,6.,16.5759692971554,-2.28586990798841,6.,          131P    234
3.87618353071072,0.,1.97573593128807,0.,0.,0.;                       131P    235
126,1,1,0,0,1,0,0.,0.,0.6,0.6,1.,1.,-17.4208852203257,0.,            133P    236
16.5759692971554,-17.4208852203257,6.,16.5759692971554,0.,0.6,       133P    237
0.,0.,0.;                                                            133P    238
126,1,1,0,0,1,0,-0.15,-0.15,0.15,0.15,1.,1.,-19.3492480493853,       135P    239
0.,14.2778359677985,-17.4208852203257,0.,16.5759692971554,-0.15,     135P    240
0.15,0.,0.,0.;                                                       135P    241
126,1,1,0,0,1,0,-0.15,-0.15,0.15,0.15,1.,1.,-19.3492480493853,       137P    242
6.,14.2778359677985,-17.4208852203257,6.,16.5759692971554,-0.15,     137P    243
0.15,0.,0.,0.;                                                       137P    244
126,1,1,0,0,1,0,0.,0.,0.6,0.6,1.,1.,-19.3492480493853,0.,            139P    245
14.2778359677985,-19.3492480493853,6.,14.2778359677985,0.,0.6,       139P    246
0.,0.,0.;                                                            139P    247
126,1,1,0,0,1,0,0.,0.,1.97573593128807,1.97573593128807,1.,1.,       141P    248
-19.3492480493853,0.,14.2778359677985,-4.21423273704801,0.,          141P    249
1.57805020135382,0.,1.97573593128807,0.,0.,0.;                       141P    250
126,1,1,0,0,1,0,-1.97573593128807,-1.97573593128807,0.,0.,1.,1.,     143P    251
-4.21423273704801,6.,1.57805020135382,-19.3492480493853,6.,          143P    252
14.2778359677985,-1.97573593128807,0.,0.,0.,0.;                      143P    253
126,1,1,0,0,1,0,0.,0.,0.6,0.6,1.,1.,-4.21423273704801,0.,            145P    254
1.57805020135382,-4.21423273704801,6.,1.57805020135382,0.,0.6,       145P    255
0.,0.,0.;                                                            145P    256
126,4,2,0,0,0,0,6.94311777145604,6.94311777145604,                   147P    257
6.94311777145604,8.36309526178452,8.36309526178452,                  147P    258
9.78307275211299,9.78307275211299,9.78307275211299,1.,               147P    259
0.758369212224514,1.,0.758369212224514,1.,3.55515136643674,0.,       147P    260
-2.75878574045231,1.18394992966306,0.,-5.8144706761953,              147P    261
-2.19331565439338,0.,-3.92929592168787,-5.57058123844982,0.,         147P    262
-2.04412116718044,-4.21423273704801,0.,1.57805020135382,             147P    263
6.94311777145604,9.78307275211299,0.,0.,0.;                          147P    264
126,4,2,0,0,0,0,6.94311777145604,6.94311777145604,                   149P    265
6.94311777145604,8.36309526178452,8.36309526178452,                  149P    266
9.78307275211299,9.78307275211299,9.78307275211299,1.,               149P    267
0.758369212224514,1.,0.758369212224514,1.,3.55515136643674,6.,       149P    268
-2.75878574045231,1.18394992966306,6.,-5.8144706761953,              149P    269
-2.19331565439338,6.,-3.92929592168787,-5.57058123844982,6.,         149P    270
-2.04412116718044,-4.21423273704801,6.,1.57805020135382,             149P    271
6.94311777145604,9.78307275211299,0.,0.,0.;                          149P    272
126,1,1,0,0,1,0,0.,0.,0.6,0.6,1.,1.,3.55515136643674,0.,             151P    273
-2.75878574045231,3.55515136643674,6.,-2.75878574045231,0.,0.6,      151P    274
0.,0.,0.;                                                            151P    275
126,1,1,0,0,1,0,0.316385840391127,0.316385840391127,                 153P    276
0.9726089187497,0.9726089187497,1.,1.,3.55515136643674,0.,           153P    277
-2.75878574045231,10.0610311878133,0.,-1.90064786875264,             153P    278
0.316385840391127,0.9726089187497,0.,0.,0.;                          153P    279
126,1,1,0,0,1,0,-0.9726089187497,-0.9726089187497,                   155P    280
-0.316385840391127,-0.316385840391127,1.,1.,10.0610311878133,6.,     155P    281
-1.90064786875264,3.55515136643674,6.,-2.75878574045231,             155P    282
-0.9726089187497,-0.316385840391127,0.,0.,0.;                        155P    283
128,1,8,1,2,0,1,0,0,1,-4.20554203218005D-16,                         157P    284
-4.20554203218005D-16,2.99999999999996,2.99999999999996,             157P    285
-3.14159265358979,-3.14159265358979,-3.14159265358979,               157P    286
-1.5707963267949,-1.5707963267949,0.,0.,1.5707963267949,             157P    287
1.5707963267949,3.14159265358979,3.14159265358979,                   157P    288
3.14159265358979,1.,1.,0.707106781186548,0.707106781186548,1.,       157P    289
1.,0.707106781186548,0.707106781186548,1.,1.,0.707106781186548,      157P    290
0.707106781186548,1.,1.,0.707106781186548,0.707106781186548,1.,      157P    291
1.,-14.1595587763326,3.,13.8393914808521,-16.0879216053922,3.,       157P    292
11.5412581514952,-14.1595587763326,4.,13.8393914808521,              157P    293
-16.0879216053922,4.,11.5412581514952,-13.3935143332136,4.,          157P    294
13.1966038711656,-15.3218771622732,4.,10.8984705418087,              157P    295
-12.6274698900946,4.,12.553816261479,-14.5558327191542,4.,           157P    296
10.2556829321221,-12.6274698900946,3.,12.553816261479,               157P    297
-14.5558327191542,3.,10.2556829321221,-12.6274698900946,2.,          157P    298
12.553816261479,-14.5558327191542,2.,10.2556829321221,               157P    299
-13.3935143332136,2.,13.1966038711656,-15.3218771622732,2.,          157P    300
10.8984705418087,-14.1595587763326,2.,13.8393914808521,              157P    301
-16.0879216053922,2.,11.5412581514952,-14.1595587763326,3.,          157P    302
13.8393914808521,-16.0879216053922,3.,11.5412581514952,              157P    303
-4.20554203218005D-16,2.99999999999996,-3.14159265358979,            157P    304
3.14159265358979;                                                    157P    305
128,1,8,1,2,0,1,0,0,1,1.17961196366423D-15,1.17961196366423D-15,     159P    306
2.99999999999996,2.99999999999996,-3.14159265358979,                 159P    307
-3.14159265358979,-3.14159265358979,-1.5707963267949,                159P    308
-1.5707963267949,0.,0.,1.5707963267949,1.5707963267949,              159P    309
3.14159265358979,3.14159265358979,3.14159265358979,1.,1.,            159P    310
0.707106781186548,0.707106781186548,1.,1.,0.707106781186548,         159P    311
0.707106781186548,1.,1.,0.707106781186548,0.707106781186548,1.,      159P    312
1.,0.707106781186548,0.707106781186548,1.,1.,-6.88213656670228,      159P    313
3.,7.73290918882996,-8.81049939576187,3.,5.43477585947306,           159P    314
-6.88213656670228,4.,7.73290918882996,-8.81049939576187,4.,          159P    315
5.43477585947306,-6.1160921235833,4.,7.09012157914342,               159P    316
-8.0444549526429,4.,4.79198824978652,-5.35004768046432,4.,           159P    317
6.44733396945688,-7.27841050952392,4.,4.14920064009998,              159P    318
-5.35004768046432,3.,6.44733396945688,-7.27841050952392,3.,          159P    319
4.14920064009998,-5.35004768046432,2.,6.44733396945688,              159P    320
-7.27841050952392,2.,4.14920064009998,-6.1160921235833,2.,           159P    321
7.09012157914342,-8.0444549526429,2.,4.79198824978652,               159P    322
-6.88213656670228,2.,7.73290918882996,-8.81049939576187,2.,          159P    323
5.43477585947306,-6.88213656670228,3.,7.73290918882996,              159P    324
-8.81049939576187,3.,5.43477585947306,1.17961196366423D-15,          159P    325
2.99999999999996,-3.14159265358979,3.14159265358979;                 159P    326
128,1,8,1,2,0,1,0,0,1,0.,0.,4.,4.,-3.14159265358979,                 161P    327
-3.14159265358979,-3.14159265358979,-1.5707963267949,                161P    328
-1.5707963267949,0.,0.,1.5707963267949,1.5707963267949,              161P    329
3.14159265358979,3.14159265358979,3.14159265358979,1.,1.,            161P    330
0.707106781186548,0.707106781186548,1.,1.,0.707106781186548,         161P    331
0.707106781186548,1.,1.,0.707106781186548,0.707106781186548,1.,      161P    332
1.,0.707106781186548,0.707106781186548,1.,1.,11.5,0.,0.,11.5,6.,     161P    333
0.,11.5,0.,1.5,11.5,6.,1.5,13.,0.,1.5,13.,6.,1.5,14.5,0.,1.5,        161P    334
14.5,6.,1.5,14.5,0.,0.,14.5,6.,0.,14.5,0.,-1.5,14.5,6.,-1.5,13.,     161P    335
0.,-1.5,13.,6.,-1.5,11.5,0.,-1.5,11.5,6.,-1.5,11.5,0.,0.,11.5,       161P    336
6.,0.,0.,4.,-3.14159265358979,3.14159265358979;                      161P    337
128,1,8,1,2,0,1,0,0,1,0.,0.,1.875,1.875,-3.14159265358979,           163P    338
-3.14159265358979,-3.14159265358979,-1.5707963267949,                163P    339
-1.5707963267949,0.,0.,1.5707963267949,1.5707963267949,              163P    340
3.14159265358979,3.14159265358979,3.14159265358979,1.,1.,            163P    341
0.707106781186548,0.707106781186548,1.,1.,0.707106781186548,         163P    342
0.707106781186548,1.,1.,0.707106781186548,0.707106781186548,1.,      163P    343
1.,0.707106781186548,0.707106781186548,1.,1.,-3.2,0.,0.,-3.2,6.,     163P    344
0.,-3.2,0.,3.2,-3.2,6.,3.2,0.,0.,3.2,0.,6.,3.2,3.2,0.,3.2,3.2,       163P    345
6.,3.2,3.2,0.,0.,3.2,6.,0.,3.2,0.,-3.2,3.2,6.,-3.2,0.,0.,-3.2,       163P    346
0.,6.,-3.2,-3.2,0.,-3.2,-3.2,6.,-3.2,-3.2,0.,0.,-3.2,6.,0.,0.,       163P    347
1.875,-3.14159265358979,3.14159265358979;                            163P    348
128,1,8,1,2,0,0,0,0,0,0.,0.,1.71428571428571,1.71428571428571,       165P    349
-2.569602038143,-2.569602038143,-2.569602038143,                     165P    350
-1.28531733462246,-1.28531733462246,-0.00103263110191998,            165P    351
-0.00103263110191998,1.28325207241862,1.28325207241862,              165P    352
2.56753677593916,2.56753677593916,2.56753677593916,1.,1.,            165P    353
0.800814515480796,0.800814515480796,1.,1.,0.800814515480796,         165P    354
0.800814515480796,1.,1.,0.800814515480796,0.800814515480796,1.,      165P    355
1.,0.800814515480796,0.800814515480796,1.,1.,10.0571121221989,       165P    356
6.,1.89457407843864,10.0571121221989,0.,1.89457407843864,            165P    357
11.4740244829749,6.,4.0954984222735,11.4740244829749,0.,             165P    358
4.0954984222735,13.9856598130542,6.,3.35834404624213,                165P    359
13.9856598130542,0.,3.35834404624213,16.4972951431335,6.,            165P    360
2.62118967021075,16.4972951431335,0.,2.62118967021075,               165P    361
16.4999981339279,6.,0.00361420821439855,16.4999981339279,0.,         165P    362
0.00361420821439855,16.5027011247224,6.,-2.61396125378196,           165P    363
16.5027011247224,0.,-2.61396125378196,13.9925935670792,6.,           165P    364
-3.35630123954822,13.9925935670792,0.,-3.35630123954822,             165P    365
11.4824860094361,6.,-4.09864122531449,11.4824860094361,0.,           165P    366
-4.09864122531449,10.0610311878133,6.,-1.90064786875264,             165P    367
10.0610311878133,0.,-1.90064786875264,0.,1.71428571428571,           165P    368
-2.569602038143,2.56753677593916;                                    165P    369
128,1,1,1,1,0,0,1,0,0,-5.55111512312578D-17,                         167P    370
-5.55111512312578D-17,0.653901334161699,0.653901334161699,0.,0.,     167P    371
0.6,0.6,1.,1.,1.,1.,3.5724981884107,0.,2.73628519964609,             167P    372
10.0571121221989,0.,1.89457407843864,3.5724981884107,6.,             167P    373
2.73628519964609,10.0571121221989,6.,1.89457407843864,               167P    374
-5.55111512312578D-17,0.653901334161699,0.,0.6;                      167P    375
128,1,2,1,2,0,0,0,0,0,0.,0.,1.33333333333333,1.33333333333333,       169P    376
-2.10362404333794,-2.10362404333794,-2.10362404333794,               169P    377
-0.653618891789066,-0.653618891789066,-0.653618891789066,1.,1.,      169P    378
0.74849771387636,0.74849771387636,1.,1.,-2.28586990798841,6.,        169P    379
3.87618353071072,-2.28586990798841,0.,3.87618353071072,              169P    380
1.14826503587211,6.,5.90136775275474,1.14826503587211,0.,            169P    381
5.90136775275474,3.5724981884107,6.,2.7362851996461,                 169P    382
3.5724981884107,0.,2.7362851996461,0.,1.33333333333333,              169P    383
-2.10362404333794,-0.653618891789066;                                169P    384
128,1,1,1,1,0,0,1,0,0,0.,0.,1.97573593128807,1.97573593128807,       171P    385
0.,0.,0.6,0.6,1.,1.,1.,1.,-17.4208852203257,0.,16.5759692971554,     171P    386
-2.28586990798841,0.,3.87618353071072,-17.4208852203257,6.,          171P    387
16.5759692971554,-2.28586990798841,6.,3.87618353071072,0.,           171P    388
1.97573593128807,0.,0.6;                                             171P    389
128,1,1,1,1,0,0,1,0,0,0.,0.,0.3,0.3,0.,0.,0.6,0.6,1.,1.,1.,1.,       173P    390
-19.3492480493853,0.,14.2778359677985,-17.4208852203257,0.,          173P    391
16.5759692971554,-19.3492480493853,6.,14.2778359677985,              173P    392
-17.4208852203257,6.,16.5759692971554,0.,0.3,0.,0.6;                 173P    393
128,1,1,1,1,0,0,1,0,0,0.,0.,1.97573593128807,1.97573593128807,       175P    394
0.,0.,0.6,0.6,1.,1.,1.,1.,-4.21423273704801,0.,1.57805020135382,     175P    395
-19.3492480493853,0.,14.2778359677985,-4.21423273704801,6.,          175P    396
1.57805020135382,-19.3492480493853,6.,14.2778359677985,0.,           175P    397
1.97573593128807,0.,0.6;                                             175P    398
128,1,4,1,2,0,0,0,0,0,0.,0.,1.33333333333333,1.33333333333333,       177P    399
0.659932464276457,0.659932464276457,0.659932464276457,               177P    400
2.07990995460493,2.07990995460493,3.49988744493341,                  177P    401
3.49988744493341,3.49988744493341,1.,1.,0.758369212224513,           177P    402
0.758369212224513,1.,1.,0.758369212224513,0.758369212224513,1.,      177P    403
1.,3.55515136643674,6.,-2.75878574045231,3.55515136643674,0.,        177P    404
-2.75878574045231,1.18394992966306,6.,-5.81447067619531,             177P    405
1.18394992966306,0.,-5.81447067619531,-2.19331565439338,6.,          177P    406
-3.92929592168787,-2.19331565439338,0.,-3.92929592168787,            177P    407
-5.57058123844983,6.,-2.04412116718043,-5.57058123844983,0.,         177P    408
-2.04412116718043,-4.21423273704801,6.,1.57805020135383,             177P    409
-4.21423273704801,0.,1.57805020135383,0.,1.33333333333333,           177P    410
0.659932464276457,3.49988744493341;                                  177P    411
128,1,1,1,1,0,0,1,0,0,-2.23767446412715D-16,                         179P    412
-2.23767446412715D-16,0.656223078358572,0.656223078358572,0.,0.,     179P    413
0.6,0.6,1.,1.,1.,1.,10.0610311878133,0.,-1.90064786875264,           179P    414
3.55515136643674,0.,-2.75878574045231,10.0610311878133,6.,           179P    415
-1.90064786875264,3.55515136643674,6.,-2.75878574045231,             179P    416
-2.23767446412715D-16,0.656223078358572,0.,0.6;                      179P    417
128,1,1,1,1,0,0,1,0,0,-1.79246240246926,-1.79246240246926,           181P    418
1.7927325149415,1.7927325149415,-1.05379846485777,                   181P    419
-1.05379846485777,1.1852455324773,1.1852455324773,1.,1.,1.,1.,       181P    420
-19.3492480493853,6.,16.5759692971554,16.5027011247224,6.,           181P    421
16.5759692971554,-19.3492480493853,6.,-5.8144706761953,              181P    422
16.5027011247224,6.,-5.8144706761953,-1.79246240246926,              181P    423
1.7927325149415,-1.05379846485777,1.1852455324773;                   181P    424
128,1,1,1,1,0,0,1,0,0,-1.79246240246926,-1.79246240246926,           183P    425
1.7927325149415,1.7927325149415,-1.05379846485777,                   183P    426
-1.05379846485777,1.1852455324773,1.1852455324773,1.,1.,1.,1.,       183P    427
16.5027011247224,0.,16.5759692971554,-19.3492480493853,0.,           183P    428
16.5759692971554,16.5027011247224,0.,-5.8144706761953,               183P    429
-19.3492480493853,0.,-5.8144706761953,-1.79246240246926,             183P    430
1.7927325149415,-1.05379846485777,1.1852455324773;                   183P    431
502,28,-14.1595587763326,3.,13.8393914808521,-16.0879216053922,      185P    432
3.,11.5412581514952,-6.88213656670228,3.,7.73290918882996,           185P    433
-8.81049939576187,3.,5.43477585947306,13.1961538461538,6.,           185P    434
-1.4871192516537,11.5,6.,0.,11.5,0.,0.,13.1961538461538,0.,          185P    435
-1.4871192516537,0.816963620173887,6.,3.09395708491769,-3.2,6.,      185P    436
0.,-3.2,0.,0.,0.816963620173887,0.,3.09395708491769,                 185P    437
10.0571121221989,0.,1.89457407843864,10.0610311878133,0.,            185P    438
-1.90064786875264,10.0610311878133,6.,-1.90064786875264,             185P    439
10.0571121221989,6.,1.89457407843864,3.5724981884107,0.,             185P    440
2.7362851996461,3.5724981884107,6.,2.7362851996461,                  185P    441
-2.28586990798841,0.,3.87618353071072,-2.28586990798841,6.,          185P    442
3.87618353071072,-17.4208852203257,0.,16.5759692971554,              185P    443
-17.4208852203257,6.,16.5759692971554,-19.3492480493853,0.,          185P    444
14.2778359677985,-19.3492480493853,6.,14.2778359677985,              185P    445
-4.21423273704801,0.,1.57805020135382,-4.21423273704801,6.,          185P    446
1.57805020135382,3.55515136643674,0.,-2.75878574045231,              185P    447
3.55515136643674,6.,-2.75878574045231;                               185P    448
504,40,77,185,1,185,1,79,185,1,185,2,81,185,2,185,2,83,185,3,        187P    449
185,3,85,185,3,185,4,87,185,4,185,4,89,185,5,185,6,91,185,6,185,     187P    450
5,93,185,6,185,7,95,185,8,185,7,97,185,7,185,8,99,185,9,185,10,      187P    451
101,185,10,185,9,103,185,10,185,11,105,185,12,185,11,107,185,11,     187P    452
185,12,109,185,13,185,14,111,185,14,185,15,113,185,16,185,15,        187P    453
115,185,13,185,16,117,185,17,185,13,119,185,18,185,16,121,185,       187P    454
17,185,18,123,185,19,185,17,125,185,20,185,18,127,185,19,185,20,     187P    455
129,185,21,185,19,131,185,22,185,20,133,185,21,185,22,135,185,       187P    456
23,185,21,137,185,24,185,22,139,185,23,185,24,141,185,23,185,25,     187P    457
143,185,26,185,24,145,185,25,185,26,147,185,27,185,25,149,185,       187P    458
28,185,26,151,185,27,185,28,153,185,27,185,14,155,185,15,185,28;     187P    459
406,1,5HBody5;                                                       189P    460
314,0.,0.,0.,13HSemi-Polished;                                       191P    461
S      1G      2D    192P    461                                        T      1
