                                                                        S      1
,,7Hz_adj_b,7Hz_adj_b,7Hunknown,7Hunknown,32,38,7,99,15,,1.,2,2HMM,1,   G      1
0.08,15H20150303.215424,0.01,10000.,7Hunknown,7Hunknown,11,0,;          G      2
     186       1                                                00000000D      1
     186            -175       1       0                               0D      2
     514       2                                                00010000D      3
     514                       2       1                               0D      4
     510       4                                                00010000D      5
     510            -175       1       1                               0D      6
     510       5                                                00010000D      7
     510            -175       1       1                               0D      8
     510       6                                                00010000D      9
     510            -175       1       1                               0D     10
     510       7                                                00010000D     11
     510            -175       1       1                               0D     12
     510       8                                                00010000D     13
     510            -175       1       1                               0D     14
     510       9                                                00010000D     15
     510            -175       1       1                               0D     16
     510      10                                                00010000D     17
     510            -175       1       1                               0D     18
     510      11                                                00010000D     19
     510            -175       1       1                               0D     20
     510      12                                                00010000D     21
     510            -175       1       1                               0D     22
     510      13                                                00010000D     23
     510            -175       1       1                               0D     24
     510      14                                                00010000D     25
     510            -175       1       1                               0D     26
     510      15                                                00010000D     27
     510            -175       1       1                               0D     28
     510      16                                                00010000D     29
     510            -175       1       1                               0D     30
     508      17                                                00010000D     31
     508                       1       1                               0D     32
     508      18                                                00010000D     33
     508                       1       1                               0D     34
     508      19                                                00010000D     35
     508                       1       1                               0D     36
     508      20                                                00010000D     37
     508                       1       1                               0D     38
     508      21                                                00010000D     39
     508                       1       1                               0D     40
     508      22                                                00010000D     41
     508                       1       1                               0D     42
     508      23                                                00010000D     43
     508                       1       1                               0D     44
     508      24                                                00010000D     45
     508                       1       1                               0D     46
     508      25                                                00010000D     47
     508                       1       1                               0D     48
     508      26                                                00010000D     49
     508                       1       1                               0D     50
     508      27                                                00010000D     51
     508                       1       1                               0D     52
     508      28                                                00010000D     53
     508                       1       1                               0D     54
     508      29                                                00010000D     55
     508                       1       1                               0D     56
     508      30                                                00010000D     57
     508                       1       1                               0D     58
     508      31                                                00010000D     59
     508                       2       1                               0D     60
     508      33                                                00010000D     61
     508                       1       1                               0D     62
     508      34                                                00010000D     63
     508                       1       1                               0D     64
     508      35                                                00010000D     65
     508                       1       1                               0D     66
     508      36                                                00010000D     67
     508                       1       1                               0D     68
     508      37                                                00010000D     69
     508                       1       1                               0D     70
     508      38                                                00010000D     71
     508                       1       1                               0D     72
     126      39                                                00010000D     73
     126       0               6       0                               0D     74
     126      45                                                00010000D     75
     126       0               3       0                               0D     76
     126      48                                                00010000D     77
     126       0               6       0                               0D     78
     126      54                                                00010000D     79
     126       0               2       0                               0D     80
     126      56                                                00010000D     81
     126       0               4       0                               0D     82
     126      60                                                00010000D     83
     126       0               2       0                               0D     84
     126      62                                                00010000D     85
     126       0               4       0                               0D     86
     126      66                                                00010000D     87
     126       0              10       0                               0D     88
     126      76                                                00010000D     89
     126       0               4       0                               0D     90
     126      80                                                00010000D     91
     126       0               4       0                               0D     92
     126      84                                                00010000D     93
     126       0               2       0                               0D     94
     126      86                                                00010000D     95
     126       0              12       0                               0D     96
     126      98                                                00010000D     97
     126       0               4       0                               0D     98
     126     102                                                00010000D     99
     126       0              12       0                               0D    100
     126     114                                                00010000D    101
     126       0              12       0                               0D    102
     126     126                                                00010000D    103
     126       0               3       0                               0D    104
     126     129                                                00010000D    105
     126       0              13       0                               0D    106
     126     142                                                00010000D    107
     126       0               3       0                               0D    108
     126     145                                                00010000D    109
     126       0              13       0                               0D    110
     126     158                                                00010000D    111
     126       0               3       0                               0D    112
     126     161                                                00010000D    113
     126       0               4       0                               0D    114
     126     165                                                00010000D    115
     126       0               4       0                               0D    116
     126     169                                                00010000D    117
     126       0              13       0                               0D    118
     126     182                                                00010000D    119
     126       0              10       0                               0D    120
     126     192                                                00010000D    121
     126       0               7       0                               0D    122
     126     199                                                00010000D    123
     126       0              12       0                               0D    124
     126     211                                                00010000D    125
     126       0              12       0                               0D    126
     126     223                                                00010000D    127
     126       0               4       0                               0D    128
     126     227                                                00010000D    129
     126       0               3       0                               0D    130
     126     230                                                00010000D    131
     126       0               2       0                               0D    132
     126     232                                                00010000D    133
     126       0               7       0                               0D    134
     126     239                                                00010000D    135
     126       0              10       0                               0D    136
     126     249                                                00010000D    137
     126       0               3       0                               0D    138
     126     252                                                00010000D    139
     126       0               4       0                               0D    140
     126     256                                                00010000D    141
     126       0              13       0                               0D    142
     128     269                                                00010000D    143
     128       0    -175       7       0                               0D    144
     128     276                                                00010000D    145
     128       0    -175       5       0                               0D    146
     128     281                                                00010000D    147
     128       0    -175       6       0                               0D    148
     128     287                                                00010000D    149
     128       0    -175      19       0                               0D    150
     128     306                                                00010000D    151
     128       0    -175      20       0                               0D    152
     128     326                                                00010000D    153
     128       0    -175      21       0                               0D    154
     128     347                                                00010000D    155
     128       0    -175       7       0                               0D    156
     128     354                                                00010000D    157
     128       0    -175      18       0                               0D    158
     128     372                                                00010000D    159
     128       0    -175       6       0                               0D    160
     128     378                                                00010000D    161
     128       0    -175      11       0                               0D    162
     128     389                                                00010000D    163
     128       0    -175       5       0                               0D    164
     128     394                                                00010000D    165
     128       0    -175      21       0                               0D    166
     128     415                                                00010000D    167
     128       0    -175       7       0                               0D    168
     502     422                                                00010000D    169
     502                      13       1                               0D    170
     504     435                                                00010001D    171
     504                      10       1                               0D    172
     406     445                                                00000000D    173
     406                       1      15                               0D    174
     314     446                                                00000200D    175
     314                       1       0                               0D    176
186,3,1,0,0,1,173;                                                     1P      1
514,13,5,1,7,1,9,1,11,1,13,1,15,1,17,1,19,1,21,1,23,1,25,1,27,1,       3P      2
29,1;                                                                  3P      3
510,143,1,1,31;                                                        5P      4
510,145,2,1,33,35;                                                     7P      5
510,147,2,1,37,39;                                                     9P      6
510,149,1,1,41;                                                       11P      7
510,151,1,1,43;                                                       13P      8
510,153,1,1,45;                                                       15P      9
510,155,3,1,47,49,51;                                                 17P     10
510,157,1,1,53;                                                       19P     11
510,159,2,1,55,57;                                                    21P     12
510,161,1,1,59;                                                       23P     13
510,163,2,1,61,63;                                                    25P     14
510,165,1,1,65;                                                       27P     15
510,167,3,1,67,69,71;                                                 29P     16
508,4,0,171,1,1,0,0,171,2,0,0,0,171,3,0,0,0,171,4,0,0;                31P     17
508,4,0,171,5,0,0,0,171,6,0,0,0,171,7,0,0,0,171,4,1,0;                33P     18
508,1,0,171,8,1,0;                                                    35P     19
508,4,0,171,9,0,0,0,171,2,1,0,0,171,10,0,0,0,171,11,1,0;              37P     20
508,1,0,171,12,1,0;                                                   39P     21
508,4,0,171,8,0,0,0,171,13,1,0,0,171,14,0,0,0,171,13,0,0;             41P     22
508,4,0,171,15,0,0,0,171,16,1,0,0,171,12,0,0,0,171,16,0,0;            43P     23
508,4,0,171,17,1,0,0,171,18,1,0,0,171,19,0,0,0,171,20,0,0;            45P     24
508,4,0,171,21,1,0,0,171,19,1,0,0,171,22,1,0,0,171,23,1,0;            47P     25
508,2,0,171,24,1,0,0,171,25,1,0;                                      49P     26
508,4,0,171,5,1,0,0,171,3,1,0,0,171,9,1,0,0,171,26,1,0;               51P     27
508,4,0,171,27,0,0,0,171,6,1,0,0,171,26,0,0,0,171,11,0,0;             53P     28
508,4,0,171,22,0,0,0,171,18,0,0,0,171,28,1,0,0,171,29,1,0;            55P     29
508,1,0,171,15,1,0;                                                   57P     30
508,6,0,171,24,0,0,0,171,25,0,0,0,171,30,1,0,0,171,31,0,0,0,171,      59P     31
32,0,0,0,171,30,0,0;                                                  59P     32
508,4,0,171,21,0,0,0,171,33,0,0,0,171,34,0,0,0,171,20,1,0;            61P     33
508,1,0,171,14,1,0;                                                   63P     34
508,4,0,171,23,0,0,0,171,29,0,0,0,171,35,1,0,0,171,33,1,0;            65P     35
508,4,0,171,17,0,0,0,171,34,1,0,0,171,35,0,0,0,171,28,0,0;            67P     36
508,4,0,171,7,1,0,0,171,27,1,0,0,171,10,1,0,0,171,1,0,0;              69P     37
508,2,0,171,31,1,0,0,171,32,1,0;                                      71P     38
126,2,2,0,0,0,0,1.36943840600457,1.36943840600457,                    73P     39
1.36943840600457,1.77215424758523,1.77215424758523,                   73P     40
1.77215424758523,1.,0.979795897113313,1.,0.5,0.,                      73P     41
10.5505102572168,-1.38777878078145D-16,0.,10.4484481846009,           73P     42
-0.500000000000001,0.,10.5505102572168,1.36943840600457,              73P     43
1.77215424758523,0.,0.,0.;                                            73P     44
126,1,1,0,0,1,0,-0.6,-0.6,0.,0.,1.,1.,-0.500000000000001,6.,          75P     45
10.5505102572168,-0.500000000000001,0.,10.5505102572168,-0.6,0.,      75P     46
0.,0.,0.;                                                             75P     47
126,2,2,0,0,0,0,1.36943840600457,1.36943840600457,                    77P     48
1.36943840600457,1.77215424758523,1.77215424758523,                   77P     49
1.77215424758523,1.,0.979795897113313,1.,0.5,6.,                      77P     50
10.5505102572168,-1.38777878078145D-16,6.,10.4484481846009,           77P     51
-0.500000000000001,6.,10.5505102572168,1.36943840600457,              77P     52
1.77215424758523,0.,0.,0.;                                            77P     53
126,1,1,0,0,1,0,0.,0.,0.6,0.6,1.,1.,0.5,0.,10.5505102572168,0.5,      79P     54
6.,10.5505102572168,0.,0.6,0.,0.,0.;                                  79P     55
126,1,1,0,0,1,0,-0.637520225900642,-0.637520225900642,                81P     56
0.101461187235458,0.101461187235458,1.,1.,0.5,6.,                     81P     57
3.16069612585582,0.5,6.,10.5505102572168,-0.637520225900642,          81P     58
0.101461187235458,0.,0.,0.;                                           81P     59
126,1,1,0,0,1,0,0.,0.,0.6,0.6,1.,1.,0.5,0.,3.16069612585582,0.5,      83P     60
6.,3.16069612585582,0.,0.6,0.,0.,0.;                                  83P     61
126,1,1,0,0,1,0,-0.101461187235458,-0.101461187235458,                85P     62
0.637520225900643,0.637520225900643,1.,1.,0.5,0.,                     85P     63
10.5505102572168,0.5,0.,3.16069612585582,-0.101461187235458,          85P     64
0.637520225900643,0.,0.,0.;                                           85P     65
126,8,2,0,1,0,0,-3.14159265358979,-3.14159265358979,                  87P     66
-3.14159265358979,-1.5707963267949,-1.5707963267949,0.,0.,            87P     67
1.5707963267949,1.5707963267949,3.14159265358979,                     87P     68
3.14159265358979,3.14159265358979,1.,0.707106781186548,1.,            87P     69
0.707106781186548,1.,0.707106781186548,1.,0.707106781186548,1.,       87P     70
0.5,3.,8.16069612585582,0.5,1.5,8.16069612585582,0.5,1.5,             87P     71
6.66069612585582,0.5,1.5,5.16069612585582,0.5,3.,                     87P     72
5.16069612585582,0.5,4.5,5.16069612585582,0.5,4.5,                    87P     73
6.66069612585582,0.5,4.5,8.16069612585582,0.5,3.,                     87P     74
8.16069612585582,-3.14159265358979,3.14159265358979,0.,0.,0.;         87P     75
126,1,1,0,0,1,0,-0.101461187235458,-0.101461187235458,                89P     76
0.637520225900642,0.637520225900642,1.,1.,-0.500000000000001,6.,      89P     77
10.5505102572168,-0.500000000000001,6.,3.16069612585582,              89P     78
-0.101461187235458,0.637520225900642,0.,0.,0.;                        89P     79
126,1,1,0,0,1,0,-0.637520225900643,-0.637520225900643,                91P     80
0.101461187235458,0.101461187235458,1.,1.,-0.500000000000001,0.,      91P     81
3.16069612585582,-0.500000000000001,0.,10.5505102572168,              91P     82
-0.637520225900643,0.101461187235458,0.,0.,0.;                        91P     83
126,1,1,0,0,1,0,0.,0.,0.6,0.6,1.,1.,-0.5,0.,3.16069612585582,         93P     84
-0.5,6.,3.16069612585582,0.,0.6,0.,0.,0.;                             93P     85
126,8,2,0,1,0,0,-3.14159265358979,-3.14159265358979,                  95P     86
-3.14159265358979,-1.5707963267949,-1.5707963267949,0.,0.,            95P     87
1.5707963267949,1.5707963267949,3.14159265358979,                     95P     88
3.14159265358979,3.14159265358979,1.,0.707106781186548,1.,            95P     89
0.707106781186548,1.,0.707106781186548,1.,0.707106781186548,1.,       95P     90
-0.500000000000001,3.,8.16069612585582,-0.500000000000001,4.5,        95P     91
8.16069612585582,-0.500000000000001,4.5,6.66069612585582,             95P     92
-0.500000000000001,4.5,5.16069612585582,-0.500000000000001,3.,        95P     93
5.16069612585582,-0.500000000000001,1.5,5.16069612585582,             95P     94
-0.500000000000001,1.5,6.66069612585582,-0.500000000000001,1.5,       95P     95
8.16069612585582,-0.500000000000001,3.,8.16069612585582,              95P     96
-3.14159265358979,3.14159265358979,0.,0.,0.;                          95P     97
126,1,1,0,0,1,0,0.666666666666667,0.666666666666667,                  97P     98
1.76195270376695,1.76195270376695,1.,1.,0.5,3.,8.16069612585582,      97P     99
2.14292905565042,3.,8.16069612585582,0.666666666666667,               97P    100
1.76195270376695,0.,0.,0.;                                            97P    101
126,8,2,0,1,0,0,-3.14159265358979,-3.14159265358979,                  99P    102
-3.14159265358979,-1.5707963267949,-1.5707963267949,0.,0.,            99P    103
1.5707963267949,1.5707963267949,3.14159265358979,                     99P    104
3.14159265358979,3.14159265358979,1.,0.707106781186548,1.,            99P    105
0.707106781186547,1.,0.707106781186547,1.,0.707106781186548,1.,       99P    106
2.14292905565042,3.,8.16069612585582,2.14292905565042,4.5,            99P    107
8.16069612585582,2.34221259075312,4.5,6.66069612585582,               99P    108
2.54149612585582,4.5,5.16069612585582,2.54149612585582,3.,            99P    109
5.16069612585582,2.54149612585582,1.5,5.16069612585582,               99P    110
2.34221259075312,1.5,6.66069612585582,2.14292905565042,1.5,           99P    111
8.16069612585582,2.14292905565042,3.,8.16069612585582,                99P    112
-3.14159265358979,3.14159265358979,0.,0.,0.;                          99P    113
126,8,2,0,1,0,0,-3.14159265358979,-3.14159265358979,                 101P    114
-3.14159265358979,-1.5707963267949,-1.5707963267949,0.,0.,           101P    115
1.5707963267949,1.5707963267949,3.14159265358979,                    101P    116
3.14159265358979,3.14159265358979,1.,0.707106781186548,1.,           101P    117
0.707106781186547,1.,0.707106781186548,1.,0.707106781186548,1.,      101P    118
-2.15130566298767,3.,8.16069612585582,-2.15130566298767,1.5,         101P    119
8.16069612585582,-2.34915850424676,1.5,6.66069612585582,             101P    120
-2.54701134550584,1.5,5.16069612585582,-2.54701134550584,3.,         101P    121
5.16069612585582,-2.54701134550584,4.5,5.16069612585582,             101P    122
-2.34915850424676,4.5,6.66069612585582,-2.15130566298767,4.5,        101P    123
8.16069612585582,-2.15130566298767,3.,8.16069612585582,              101P    124
-3.14159265358979,3.14159265358979,0.,0.,0.;                         101P    125
126,1,1,0,0,1,0,-1.10087044199178,-1.10087044199178,0.,0.,1.,1.,     103P    126
-2.15130566298767,3.,8.16069612585582,-0.500000000000001,3.,         103P    127
8.16069612585582,-1.10087044199178,0.,0.,0.,0.;                      103P    128
126,8,2,0,0,0,0,-0.91211246733749,-0.91211246733749,                 105P    129
-0.91211246733749,0.329029778523941,0.329029778523941,               105P    130
1.57017202438537,1.57017202438537,2.8113142702468,                   105P    131
2.8113142702468,4.05245651610823,4.05245651610823,                   105P    132
4.05245651610823,1.,0.813546481440835,1.,0.813546481440834,1.,       105P    133
0.813546481440836,1.,0.813546481440836,1.,2.75434461198462,0.,       105P    134
3.55859322744695,5.29792585650525,0.,1.58986602312503,               105P    135
4.25860331271988,0.,-1.45406252440919,3.21928076893451,0.,           105P    136
-4.49799107194342,0.00280936066036945,0.,-4.49999912305466,          105P    137
-3.21366204761377,0.,-4.50200717416589,-4.2567844441058,0.,          105P    138
-1.45937870219449,-5.29990684059783,0.,1.58324976977692,             105P    139
-2.75878574045231,0.,3.55515136643674,-0.91211246733749,             105P    140
4.05245651610823,0.,0.,0.;                                           105P    141
126,1,1,0,0,1,0,0.,0.,0.6,0.6,1.,1.,-2.75878574045231,0.,            107P    142
3.55515136643674,-2.75878574045231,6.,3.55515136643674,0.,0.6,       107P    143
0.,0.,0.;                                                            107P    144
126,8,2,0,0,0,0,-0.91211246733749,-0.91211246733749,                 109P    145
-0.91211246733749,0.329029778523941,0.329029778523941,               109P    146
1.57017202438537,1.57017202438537,2.8113142702468,                   109P    147
2.8113142702468,4.05245651610823,4.05245651610823,                   109P    148
4.05245651610823,1.,0.813546481440835,1.,0.813546481440836,1.,       109P    149
0.813546481440836,1.,0.813546481440836,1.,2.75434461198462,6.,       109P    150
3.55859322744695,5.29792585650525,6.,1.58986602312503,               109P    151
4.25860331271988,6.,-1.45406252440919,3.21928076893451,6.,           109P    152
-4.49799107194342,0.00280936066037045,6.,-4.49999912305466,          109P    153
-3.21366204761377,6.,-4.50200717416589,-4.2567844441058,6.,          109P    154
-1.45937870219449,-5.29990684059783,6.,1.58324976977692,             109P    155
-2.75878574045231,6.,3.55515136643674,-0.91211246733749,             109P    156
4.05245651610823,0.,0.,0.;                                           109P    157
126,1,1,0,0,1,0,0.,0.,0.6,0.6,1.,1.,2.75434461198462,0.,             111P    158
3.55859322744695,2.75434461198462,6.,3.55859322744695,0.,0.6,0.,     111P    159
0.,0.;                                                               111P    160
126,1,1,0,0,1,0,-0.963893960141357,-0.963893960141357,               113P    161
-0.308546821144049,-0.308546821144049,1.,1.,1.89126230552848,6.,     113P    162
10.0549827009528,2.75434461198462,6.,3.55859322744695,               113P    163
-0.963893960141357,-0.308546821144049,0.,0.,0.;                      113P    164
126,1,1,0,0,1,0,0.316385840391128,0.316385840391128,                 115P    165
0.9726089187497,0.9726089187497,1.,1.,-2.75878574045231,6.,          115P    166
3.55515136643674,-1.90064786875264,6.,10.0610311878133,              115P    167
0.316385840391128,0.9726089187497,0.,0.,0.;                          115P    168
126,8,2,0,0,0,0,-4.13833310273405,-4.13833310273405,                 117P    169
-4.13833310273405,-2.85376716399815,-2.85376716399815,               117P    170
-1.56920122526225,-1.56920122526225,-0.284635286526346,              117P    171
-0.284635286526346,0.999930652209556,0.999930652209556,              117P    172
0.999930652209556,1.,0.800730289929053,1.,0.800730289929054,1.,      117P    173
0.800730289929052,1.,0.800730289929055,1.,-1.90064786875264,6.,      117P    174
10.0610311878133,-4.09928571576578,6.,11.4829028050814,              117P    175
-3.35602195455592,6.,13.993537437915,-2.61275819334605,6.,           117P    176
16.5041720707486,0.00558285299681348,6.,16.4999955473904,            117P    177
2.62392389933968,6.,16.4958190240322,3.35917445759244,6.,            117P    178
13.9828260087414,4.0944250158452,6.,11.4698329934506,                117P    179
1.89126230552848,6.,10.0549827009528,-4.13833310273405,              117P    180
0.999930652209556,0.,0.,0.;                                          117P    181
126,6,2,0,0,0,0,-1.23095941734077,-1.23095941734077,                 119P    182
-1.23095941734077,0.226557939636082,0.226557939636082,               119P    183
1.68407529661294,1.68407529661294,3.14159265358979,                  119P    184
3.14159265358979,3.14159265358979,1.,0.746001627643869,1.,           119P    185
0.746001627643866,1.,0.746001627643865,1.,0.500000000000001,6.,      119P    186
11.5857864376269,1.76244658458415,6.,12.0321287080495,               119P    187
1.46166800695017,6.,13.336937141702,1.16088942931619,6.,             119P    188
14.6417455753545,-0.169555285341906,6.,14.4903861933112,-1.5,6.,     119P    189
14.3390268112679,-1.5,6.,13.,-1.23095941734077,3.14159265358979,     119P    190
0.,0.,0.;                                                            119P    191
126,4,2,0,0,0,0,3.14159265358979,3.14159265358979,                   121P    192
3.14159265358979,4.0969092717143,4.0969092717143,                    121P    193
5.05222588983881,5.05222588983881,5.05222588983881,1.,               121P    194
0.888073833977119,1.,0.888073833977116,1.,-1.5,6.,13.,-1.5,6.,       121P    195
12.2235428646924,-0.866025403784438,6.,11.7752551286084,             121P    196
-0.232050807568877,6.,11.3269673925244,0.500000000000001,6.,         121P    197
11.5857864376269,3.14159265358979,5.05222588983881,0.,0.,0.;         121P    198
126,8,2,0,0,0,0,1.72768919781536,1.72768919781536,                   123P    199
1.72768919781536,3.22003908910002,3.22003908910002,                  123P    200
4.71238898038469,4.71238898038469,6.20473887166936,                  123P    201
6.20473887166936,7.69708876295402,7.69708876295402,                  123P    202
7.69708876295402,1.,0.734290815146941,1.,0.734290815146941,1.,       123P    203
0.734290815146941,1.,0.734290815146942,1.,-0.5,6.,                   123P    204
3.16069612585582,-3.42199113362529,6.,2.69845758452276,              123P    205
-3.19015889907843,6.,-0.250771207738619,-2.95832666453157,6.,        123P    206
-3.2,-5.87830463590729D-16,6.,-3.2,2.95832666453158,6.,-3.2,         123P    207
3.19015889907843,6.,-0.250771207738618,3.42199113362529,6.,          123P    208
2.69845758452276,0.500000000000001,6.,3.16069612585582,              123P    209
1.72768919781536,7.69708876295402,0.,0.,0.;                          123P    210
126,8,2,0,0,0,0,-1.41390345577444,-1.41390345577444,                 125P    211
-1.41390345577444,0.0784464355102306,0.0784464355102306,             125P    212
1.5707963267949,1.5707963267949,3.06314621807956,                    125P    213
3.06314621807956,4.55549610936423,4.55549610936423,                  125P    214
4.55549610936423,1.,0.734290815146941,1.,0.73429081514694,1.,        125P    215
0.734290815146941,1.,0.73429081514694,1.,0.5,0.,                     125P    216
3.16069612585582,3.42199113362529,0.,2.69845758452276,               125P    217
3.19015889907843,0.,-0.250771207738618,2.95832666453158,0.,-3.2,     125P    218
1.95943487863577D-16,0.,-3.2,-2.95832666453158,0.,-3.2,              125P    219
-3.19015889907843,0.,-0.250771207738617,-3.42199113362529,0.,        125P    220
2.69845758452276,-0.5,0.,3.16069612585582,-1.41390345577444,         125P    221
4.55549610936423,0.,0.,0.;                                           125P    222
126,1,1,0,0,1,0,0.316385840391128,0.316385840391128,                 127P    223
0.9726089187497,0.9726089187497,1.,1.,-2.75878574045231,0.,          127P    224
3.55515136643674,-1.90064786875264,0.,10.0610311878133,              127P    225
0.316385840391128,0.9726089187497,0.,0.,0.;                          127P    226
126,1,1,0,0,1,0,0.,0.,0.6,0.6,1.,1.,-1.90064786875264,0.,            129P    227
10.0610311878133,-1.90064786875264,6.,10.0610311878133,0.,0.6,       129P    228
0.,0.,0.;                                                            129P    229
126,1,1,0,0,1,0,-4.,-4.,0.,0.,1.,1.,-1.5,6.,13.,-1.5,0.,13.,-4.,     131P    230
0.,0.,0.,0.;                                                         131P    231
126,4,2,0,0,0,0,-5.05222588983881,-5.05222588983881,                 133P    232
-5.05222588983881,-4.0969092717143,-4.0969092717143,                 133P    233
-3.14159265358979,-3.14159265358979,-3.14159265358979,1.,            133P    234
0.888073833977116,1.,0.888073833977119,1.,0.500000000000001,0.,      133P    235
11.5857864376269,-0.232050807568877,0.,11.3269673925244,             133P    236
-0.866025403784438,0.,11.7752551286084,-1.5,0.,12.2235428646924,     133P    237
-1.5,0.,13.,-5.05222588983881,-3.14159265358979,0.,0.,0.;            133P    238
126,6,2,0,0,0,0,-3.14159265358979,-3.14159265358979,                 135P    239
-3.14159265358979,-1.68407529661294,-1.68407529661294,               135P    240
-0.226557939636082,-0.226557939636082,1.23095941734077,              135P    241
1.23095941734077,1.23095941734077,1.,0.746001627643865,1.,           135P    242
0.746001627643866,1.,0.746001627643869,1.,-1.5,0.,13.,-1.5,0.,       135P    243
14.3390268112679,-0.169555285341906,0.,14.4903861933112,             135P    244
1.16088942931619,0.,14.6417455753545,1.46166800695017,0.,            135P    245
13.336937141702,1.76244658458415,0.,12.0321287080495,                135P    246
0.500000000000001,0.,11.5857864376269,-3.14159265358979,             135P    247
1.23095941734077,0.,0.,0.;                                           135P    248
126,1,1,0,0,1,0,0.,0.,0.6,0.6,1.,1.,1.89126230552848,0.,             137P    249
10.0549827009528,1.89126230552848,6.,10.0549827009528,0.,0.6,0.,     137P    250
0.,0.;                                                               137P    251
126,1,1,0,0,1,0,0.308546821144049,0.308546821144049,                 139P    252
0.963893960141357,0.963893960141357,1.,1.,2.75434461198462,0.,       139P    253
3.55859322744695,1.89126230552848,0.,10.0549827009528,               139P    254
0.308546821144049,0.963893960141357,0.,0.,0.;                        139P    255
126,8,2,0,0,0,0,2.14485220444553,2.14485220444553,                   141P    256
2.14485220444553,3.42941814318143,3.42941814318143,                  141P    257
4.71398408191734,4.71398408191734,5.99855002065324,                  141P    258
5.99855002065324,7.28311595938914,7.28311595938914,                  141P    259
7.28311595938914,1.,0.800730289929055,1.,0.800730289929051,1.,       141P    260
0.800730289929054,1.,0.800730289929053,1.,-1.90064786875264,0.,      141P    261
10.0610311878133,-4.09928571576578,0.,11.4829028050814,              141P    262
-3.35602195455592,0.,13.993537437915,-2.61275819334605,0.,           141P    263
16.5041720707486,0.00558285299681262,0.,16.4999955473904,            141P    264
2.62392389933968,0.,16.4958190240322,3.35917445759244,0.,            141P    265
13.9828260087414,4.0944250158452,0.,11.4698329934506,                141P    266
1.89126230552848,0.,10.0549827009528,2.14485220444553,               141P    267
7.28311595938914,0.,0.,0.;                                           141P    268
128,1,2,1,2,0,0,0,0,0,0.,0.,2.4,2.4,1.36943840600457,                143P    269
1.36943840600457,1.36943840600457,1.77215424758523,                  143P    270
1.77215424758523,1.77215424758523,1.,1.,0.979795897113271,           143P    271
0.979795897113271,1.,1.,0.5,6.,10.5505102572168,0.5,0.,              143P    272
10.5505102572168,0.,6.,10.4484481846009,0.,0.,10.4484481846009,      143P    273
-0.500000000000001,6.,10.5505102572168,-0.500000000000001,0.,        143P    274
10.5505102572168,0.,2.4,1.36943840600457,1.77215424758523;           143P    275
128,1,1,1,1,0,0,1,0,0,-0.131143982914376,-0.131143982914376,         145P    276
0.607837430221724,0.607837430221724,0.,0.,0.6,0.6,1.,1.,1.,1.,       145P    277
0.5,0.,3.16069612585582,0.5,0.,10.5505102572168,0.5,6.,              145P    278
3.16069612585582,0.5,6.,10.5505102572168,-0.131143982914376,         145P    279
0.607837430221724,0.,0.6;                                            145P    280
128,1,1,1,1,0,0,1,0,0,0.103527618041008,0.103527618041008,           147P    281
0.842509031177109,0.842509031177109,0.,0.,0.6,0.6,1.,1.,1.,1.,       147P    282
-0.500000000000001,0.,10.5505102572168,-0.500000000000001,0.,        147P    283
3.16069612585582,-0.500000000000001,6.,10.5505102572168,             147P    284
-0.500000000000001,6.,3.16069612585582,0.103527618041008,            147P    285
0.842509031177109,0.,0.6;                                            147P    286
128,1,8,1,2,0,1,0,0,1,0.666666666666667,0.666666666666667,           149P    287
2.04682916670796,2.04682916670796,-3.14159265358979,                 149P    288
-3.14159265358979,-3.14159265358979,-1.5707963267949,                149P    289
-1.5707963267949,0.,0.,1.5707963267949,1.5707963267949,              149P    290
3.14159265358979,3.14159265358979,3.14159265358979,1.,1.,            149P    291
0.707106781186548,0.707106781186548,1.,1.,0.707106781186548,         149P    292
0.707106781186548,1.,1.,0.707106781186548,0.707106781186548,1.,      149P    293
1.,0.707106781186548,0.707106781186548,1.,1.,0.5,3.,                 149P    294
8.16069612585582,2.57024375006193,3.,8.16069612585582,0.5,1.5,       149P    295
8.16069612585582,2.57024375006193,1.5,8.16069612585582,0.5,1.5,      149P    296
6.66069612585582,2.57024375006193,1.5,6.66069612585582,0.5,1.5,      149P    297
5.16069612585582,2.57024375006193,1.5,5.16069612585582,0.5,3.,       149P    298
5.16069612585582,2.57024375006193,3.,5.16069612585582,0.5,4.5,       149P    299
5.16069612585582,2.57024375006193,4.5,5.16069612585582,0.5,4.5,      149P    300
6.66069612585582,2.57024375006193,4.5,6.66069612585582,0.5,4.5,      149P    301
8.16069612585582,2.57024375006193,4.5,8.16069612585582,0.5,3.,       149P    302
8.16069612585582,2.57024375006193,3.,8.16069612585582,               149P    303
0.666666666666667,2.04682916670796,-3.14159265358979,                149P    304
3.14159265358979;                                                    149P    305
128,1,8,1,2,0,1,0,0,1,-1.38384104586021,-1.38384104586021,0.,0.,     151P    306
-3.14159265358979,-3.14159265358979,-3.14159265358979,               151P    307
-1.5707963267949,-1.5707963267949,0.,0.,1.5707963267949,             151P    308
1.5707963267949,3.14159265358979,3.14159265358979,                   151P    309
3.14159265358979,1.,1.,0.707106781186548,0.707106781186548,1.,       151P    310
1.,0.707106781186548,0.707106781186548,1.,1.,0.707106781186548,      151P    311
0.707106781186548,1.,1.,0.707106781186548,0.707106781186548,1.,      151P    312
1.,-2.57576156879031,3.,8.16069612585582,-0.500000000000001,3.,      151P    313
8.16069612585582,-2.57576156879031,1.5,8.16069612585582,             151P    314
-0.500000000000001,1.5,8.16069612585582,-2.57576156879031,1.5,       151P    315
6.66069612585582,-0.500000000000001,1.5,6.66069612585582,            151P    316
-2.57576156879031,1.5,5.16069612585582,-0.500000000000001,1.5,       151P    317
5.16069612585582,-2.57576156879031,3.,5.16069612585582,              151P    318
-0.500000000000001,3.,5.16069612585582,-2.57576156879031,4.5,        151P    319
5.16069612585582,-0.500000000000001,4.5,5.16069612585582,            151P    320
-2.57576156879031,4.5,6.66069612585582,-0.500000000000001,4.5,       151P    321
6.66069612585582,-2.57576156879031,4.5,8.16069612585582,             151P    322
-0.500000000000001,4.5,8.16069612585582,-2.57576156879031,3.,        151P    323
8.16069612585582,-0.500000000000001,3.,8.16069612585582,             151P    324
-1.38384104586021,0.,-3.14159265358979,3.14159265358979;             151P    325
128,1,8,1,2,0,0,0,0,0,0.,0.,1.33333333333333,1.33333333333333,       153P    326
-0.91211246733749,-0.91211246733749,-0.91211246733749,               153P    327
0.329029778523941,0.329029778523941,1.57017202438537,                153P    328
1.57017202438537,2.8113142702468,2.8113142702468,                    153P    329
4.05245651610823,4.05245651610823,4.05245651610823,1.,1.,            153P    330
0.813546481440835,0.813546481440835,1.,1.,0.813546481440835,         153P    331
0.813546481440835,1.,1.,0.813546481440835,0.813546481440835,1.,      153P    332
1.,0.813546481440835,0.813546481440835,1.,1.,2.75434461198462,       153P    333
6.,3.55859322744695,2.75434461198462,0.,3.55859322744695,            153P    334
5.29792585650525,6.,1.58986602312503,5.29792585650525,0.,            153P    335
1.58986602312503,4.25860331271988,6.,-1.4540625244092,               153P    336
4.25860331271988,0.,-1.4540625244092,3.21928076893451,6.,            153P    337
-4.49799107194342,3.21928076893451,0.,-4.49799107194342,             153P    338
0.00280936066036845,6.,-4.49999912305466,0.00280936066036845,0.,     153P    339
-4.49999912305466,-3.21366204761377,6.,-4.50200717416589,            153P    340
-3.21366204761377,0.,-4.50200717416589,-4.2567844441058,6.,          153P    341
-1.45937870219449,-4.2567844441058,0.,-1.45937870219449,             153P    342
-5.29990684059783,6.,1.58324976977692,-5.29990684059783,0.,          153P    343
1.58324976977692,-2.75878574045231,6.,3.55515136643674,              153P    344
-2.75878574045231,0.,3.55515136643674,0.,1.33333333333333,           153P    345
-0.91211246733749,4.05245651610823;                                  153P    346
128,1,1,1,1,0,0,1,0,0,-0.80467018169948,-0.80467018169948,           155P    347
0.255113088010828,0.255113088010828,-1.19152032429446,               155P    348
-1.19152032429446,0.909097600196989,0.909097600196989,1.,1.,1.,      155P    349
1.,-5.29990684059783,6.,16.5041720707486,5.29792585650525,6.,        155P    350
16.5041720707486,-5.29990684059783,6.,-4.50200717416589,             155P    351
5.29792585650525,6.,-4.50200717416589,-0.80467018169948,             155P    352
0.255113088010828,-1.19152032429446,0.909097600196989;               155P    353
128,1,8,1,2,0,0,0,0,0,0.,0.,1.875,1.875,-1.41390345577444,           157P    354
-1.41390345577444,-1.41390345577444,0.0784464355102303,              157P    355
0.0784464355102303,1.5707963267949,1.5707963267949,                  157P    356
3.06314621807956,3.06314621807956,4.55549610936423,                  157P    357
4.55549610936423,4.55549610936423,1.,1.,0.734290815146941,           157P    358
0.734290815146941,1.,1.,0.734290815146941,0.734290815146941,1.,      157P    359
1.,0.734290815146941,0.734290815146941,1.,1.,0.734290815146941,      157P    360
0.734290815146941,1.,1.,0.5,0.,3.16069612585582,0.5,6.,              157P    361
3.16069612585582,3.42199113362529,0.,2.69845758452276,               157P    362
3.42199113362529,6.,2.69845758452276,3.19015889907843,0.,            157P    363
-0.250771207738618,3.19015889907843,6.,-0.250771207738618,           157P    364
2.95832666453158,0.,-3.2,2.95832666453158,6.,-3.2,0.,0.,-3.2,0.,     157P    365
6.,-3.2,-2.95832666453158,0.,-3.2,-2.95832666453158,6.,-3.2,         157P    366
-3.19015889907843,0.,-0.250771207738619,-3.19015889907843,6.,        157P    367
-0.250771207738619,-3.42199113362529,0.,2.69845758452276,            157P    368
-3.42199113362529,6.,2.69845758452276,-0.5,0.,3.16069612585582,      157P    369
-0.5,6.,3.16069612585582,0.,1.875,-1.41390345577444,                 157P    370
4.55549610936423;                                                    157P    371
128,1,1,1,1,0,0,1,0,0,-1.11022302462516D-16,                         159P    372
-1.11022302462516D-16,0.656223078358572,0.656223078358572,0.,0.,     159P    373
0.6,0.6,1.,1.,1.,1.,-2.75878574045231,0.,3.55515136643674,           159P    374
-1.90064786875264,0.,10.0610311878133,-2.75878574045231,6.,          159P    375
3.55515136643674,-1.90064786875264,6.,10.0610311878133,              159P    376
-1.11022302462516D-16,0.656223078358572,0.,0.6;                      159P    377
128,1,8,1,2,0,1,0,0,1,0.,0.,4.,4.,-3.14159265358979,                 161P    378
-3.14159265358979,-3.14159265358979,-1.5707963267949,                161P    379
-1.5707963267949,0.,0.,1.5707963267949,1.5707963267949,              161P    380
3.14159265358979,3.14159265358979,3.14159265358979,1.,1.,            161P    381
0.707106781186548,0.707106781186548,1.,1.,0.707106781186548,         161P    382
0.707106781186548,1.,1.,0.707106781186548,0.707106781186548,1.,      161P    383
1.,0.707106781186548,0.707106781186548,1.,1.,-1.5,0.,13.,-1.5,       161P    384
6.,13.,-1.5,0.,14.5,-1.5,6.,14.5,0.,0.,14.5,0.,6.,14.5,1.5,0.,       161P    385
14.5,1.5,6.,14.5,1.5,0.,13.,1.5,6.,13.,1.5,0.,11.5,1.5,6.,11.5,      161P    386
0.,0.,11.5,0.,6.,11.5,-1.5,0.,11.5,-1.5,6.,11.5,-1.5,0.,13.,         161P    387
-1.5,6.,13.,0.,4.,-3.14159265358979,3.14159265358979;                161P    388
128,1,1,1,1,0,0,1,0,0,0.,0.,0.655347138997308,0.655347138997308,     163P    389
0.,0.,0.6,0.6,1.,1.,1.,1.,1.89126230552848,0.,10.0549827009528,      163P    390
2.75434461198462,0.,3.55859322744695,1.89126230552848,6.,            163P    391
10.0549827009528,2.75434461198462,6.,3.55859322744695,0.,            163P    392
0.655347138997308,0.,0.6;                                            163P    393
128,1,8,1,2,0,0,0,0,0,0.,0.,1.71428571428571,1.71428571428571,       165P    394
2.14485220444553,2.14485220444553,2.14485220444553,                  165P    395
3.42941814318143,3.42941814318143,4.71398408191734,                  165P    396
4.71398408191734,5.99855002065324,5.99855002065324,                  165P    397
7.28311595938914,7.28311595938914,7.28311595938914,1.,1.,            165P    398
0.800730289929054,0.800730289929054,1.,1.,0.800730289929054,         165P    399
0.800730289929054,1.,1.,0.800730289929054,0.800730289929054,1.,      165P    400
1.,0.800730289929054,0.800730289929054,1.,1.,-1.90064786875264,      165P    401
6.,10.0610311878133,-1.90064786875264,0.,10.0610311878133,           165P    402
-4.09928571576578,6.,11.4829028050814,-4.09928571576578,0.,          165P    403
11.4829028050814,-3.35602195455592,6.,13.993537437915,               165P    404
-3.35602195455592,0.,13.993537437915,-2.61275819334605,6.,           165P    405
16.5041720707486,-2.61275819334605,0.,16.5041720707486,              165P    406
0.00558285299680951,6.,16.4999955473904,0.00558285299680951,0.,      165P    407
16.4999955473904,2.62392389933967,6.,16.4958190240322,               165P    408
2.62392389933967,0.,16.4958190240322,3.35917445759244,6.,            165P    409
13.9828260087414,3.35917445759244,0.,13.9828260087414,               165P    410
4.0944250158452,6.,11.4698329934506,4.0944250158452,0.,              165P    411
11.4698329934506,1.89126230552849,6.,10.0549827009528,               165P    412
1.89126230552849,0.,10.0549827009528,0.,1.71428571428571,            165P    413
2.14485220444553,7.28311595938914;                                   165P    414
128,1,1,1,1,0,0,1,0,0,-0.80467018169948,-0.80467018169948,           167P    415
0.255113088010828,0.255113088010828,-1.19152032429446,               167P    416
-1.19152032429446,0.909097600196989,0.909097600196989,1.,1.,1.,      167P    417
1.,5.29792585650525,0.,16.5041720707486,-5.29990684059783,0.,        167P    418
16.5041720707486,5.29792585650525,0.,-4.50200717416589,              167P    419
-5.29990684059783,0.,-4.50200717416589,-0.80467018169948,            167P    420
0.255113088010828,-1.19152032429446,0.909097600196989;               167P    421
502,24,0.5,0.,10.5505102572168,-0.500000000000001,0.,                169P    422
10.5505102572168,-0.500000000000001,6.,10.5505102572168,0.5,6.,      169P    423
10.5505102572168,0.5,6.,3.16069612585582,0.5,0.,                     169P    424
3.16069612585582,0.5,3.,8.16069612585582,-0.5,6.,                    169P    425
3.16069612585582,-0.5,0.,3.16069612585582,-0.500000000000001,3.,     169P    426
8.16069612585582,2.14292905565042,3.,8.16069612585582,               169P    427
-2.15130566298767,3.,8.16069612585582,2.75434461198462,0.,           169P    428
3.55859322744695,-2.75878574045231,0.,3.55515136643674,              169P    429
-2.75878574045231,6.,3.55515136643674,2.75434461198462,6.,           169P    430
3.55859322744695,1.89126230552848,6.,10.0549827009528,               169P    431
-1.90064786875264,6.,10.0610311878133,0.5,6.,11.5857864376269,       169P    432
-1.5,6.,13.,-1.90064786875264,0.,10.0610311878133,-1.5,0.,13.,       169P    433
0.5,0.,11.5857864376269,1.89126230552848,0.,10.0549827009528;        169P    434
504,35,73,169,1,169,2,75,169,3,169,2,77,169,4,169,3,79,169,1,        171P    435
169,4,81,169,5,169,4,83,169,6,169,5,85,169,1,169,6,87,169,7,169,     171P    436
7,89,169,3,169,8,91,169,9,169,2,93,169,9,169,8,95,169,10,169,10,     171P    437
97,169,7,169,11,99,169,11,169,11,101,169,12,169,12,103,169,12,       171P    438
169,10,105,169,13,169,14,107,169,14,169,15,109,169,16,169,15,        171P    439
111,169,13,169,16,113,169,17,169,16,115,169,15,169,18,117,169,       171P    440
18,169,17,119,169,19,169,20,121,169,20,169,19,123,169,8,169,5,       171P    441
125,169,6,169,9,127,169,14,169,21,129,169,21,169,18,131,169,20,      171P    442
169,22,133,169,23,169,22,135,169,22,169,23,137,169,24,169,17,        171P    443
139,169,13,169,24,141,169,21,169,24;                                 171P    444
406,1,6HBody12;                                                      173P    445
314,0.,0.,0.,13HSemi-Polished;                                       175P    446
S      1G      2D    176P    446                                        T      1
